<?xml version="1.0" encoding="UTF-8" standalone="no"?>
<svg xmlns:ffdec="https://www.free-decompiler.com/flash" xmlns:xlink="http://www.w3.org/1999/xlink" ffdec:objectType="shape" height="16.0px" width="145.0px" xmlns="http://www.w3.org/2000/svg">
  <g transform="matrix(1.0, 0.0, 0.0, 1.0, 0.0, 9.0)">
    <path d="M140.0 -9.0 L141.0 -9.0 141.0 -8.0 142.0 -8.0 142.0 -7.0 143.0 -7.0 143.0 -6.0 144.0 -6.0 144.0 -5.0 145.0 -5.0 145.0 -4.0 144.0 -4.0 144.0 -3.0 143.0 -3.0 143.0 -2.0 142.0 -2.0 142.0 -1.0 141.0 -1.0 141.0 0.0 140.0 0.0 140.0 -1.0 141.0 -1.0 141.0 -2.0 142.0 -2.0 142.0 -3.0 143.0 -3.0 143.0 -4.0 144.0 -4.0 144.0 -5.0 143.0 -5.0 143.0 -6.0 142.0 -6.0 142.0 -7.0 141.0 -7.0 141.0 -8.0 140.0 -8.0 140.0 -9.0" fill="#333333" fill-rule="evenodd" stroke="none"/>
    <path d="M140.0 0.0 L139.0 0.0 139.0 -9.0 140.0 -9.0 140.0 -8.0 141.0 -8.0 141.0 -7.0 142.0 -7.0 142.0 -6.0 143.0 -6.0 143.0 -5.0 144.0 -5.0 144.0 -4.0 143.0 -4.0 143.0 -3.0 142.0 -3.0 142.0 -2.0 141.0 -2.0 141.0 -1.0 140.0 -1.0 140.0 0.0" fill="#ffff99" fill-rule="evenodd" stroke="none"/>
    <path d="M139.0 5.0 L139.0 6.0 138.0 6.0 138.0 5.0 139.0 5.0 139.0 0.0 140.0 0.0 140.0 5.0 139.0 5.0 M138.0 6.0 L138.0 7.0 2.0 7.0 2.0 6.0 1.0 6.0 1.0 5.0 0.0 5.0 0.0 0.0 1.0 0.0 1.0 5.0 2.0 5.0 2.0 6.0 138.0 6.0" fill="#333333" fill-rule="evenodd" stroke="none"/>
    <path d="M139.0 5.0 L138.0 5.0 138.0 6.0 2.0 6.0 2.0 5.0 1.0 5.0 1.0 0.0 139.0 0.0 139.0 5.0" fill="#ffff99" fill-rule="evenodd" stroke="none"/>
  </g>
</svg>
