<?xml version="1.0" encoding="UTF-8" standalone="no"?>
<svg xmlns:ffdec="https://www.free-decompiler.com/flash" xmlns:xlink="http://www.w3.org/1999/xlink" ffdec:objectType="shape" height="308.8px" width="194.0px" xmlns="http://www.w3.org/2000/svg">
  <g transform="matrix(1.0, 0.0, 0.0, 1.0, 439.0, 157.0)">
    <path d="M-368.35 -127.5 L-368.0 -128.35 Q-364.05 -137.6 -360.05 -143.8 L-359.8 -144.2 -359.6 -144.5 -359.15 -145.2 Q-350.85 -157.4 -342.45 -156.4 M-387.65 -47.8 Q-388.65 -57.85 -388.9 -65.0 -389.45 -80.65 -386.5 -82.5 -384.7 -83.6 -381.0 -93.25 M-292.35 -138.1 L-286.35 -132.0 Q-281.6 -126.65 -278.35 -121.0 M-269.5 -66.55 L-268.5 -66.5 Q-263.35 -65.85 -263.75 -56.6 L-266.5 -35.5 Q-267.35 -28.65 -268.8 -21.3 M-273.95 -111.35 Q-270.6 -101.35 -271.5 -90.5 L-272.0 -84.75 M-245.65 145.6 Q-245.75 149.05 -245.5 149.5 -244.3 151.9 -308.75 151.1 M-387.5 10.0 L-385.45 8.4 M-438.5 146.5 L-437.7 142.95 M-437.0 148.75 L-437.5 148.5 M-382.65 149.55 L-384.5 149.5 -386.45 146.2 M-342.55 150.55 L-349.65 150.4" fill="none" stroke="#010101" stroke-linecap="round" stroke-linejoin="round" stroke-opacity="0.0" stroke-width="1.0"/>
  </g>
</svg>
