<?xml version="1.0" encoding="UTF-8" standalone="no"?>
<svg xmlns:ffdec="https://www.free-decompiler.com/flash" xmlns:xlink="http://www.w3.org/1999/xlink" ffdec:objectType="shape" height="316.2px" width="204.15px" xmlns="http://www.w3.org/2000/svg">
  <g transform="matrix(1.0, 0.0, 0.0, 1.0, 102.1, 158.1)">
    <path d="M3.0 -157.4 Q14.4 -160.45 28.7 -150.6 33.75 -147.1 38.2 -142.65 41.85 -139.0 43.0 -136.9 L43.4 -136.0 Q45.35 -132.0 53.5 -123.4 L57.4 -118.9 Q61.65 -113.45 61.75 -109.9 L61.8 -109.25 Q61.95 -104.15 62.7 -96.1 L63.75 -82.9 63.75 -82.65 63.4 -76.05 63.35 -75.0 Q65.6 -71.0 65.75 -65.05 L66.25 -64.45 Q67.25 -63.2 68.6 -62.2 71.75 -59.85 71.75 -57.4 71.75 -55.6 69.25 -45.1 66.75 -34.6 66.75 -25.5 L66.95 -19.2 Q67.7 -7.45 71.45 -0.85 74.6 4.7 81.75 8.5 89.85 12.8 92.05 15.4 L92.55 16.0 93.75 15.7 Q97.0 15.45 99.25 20.85 101.75 26.9 101.75 37.7 L102.0 42.55 Q102.15 46.55 101.75 49.35 L101.6 50.25 101.75 55.2 Q101.75 63.2 99.75 73.45 97.75 83.65 97.75 94.6 L98.25 103.25 Q98.65 110.5 98.3 115.5 97.5 127.45 92.35 130.25 L92.75 140.1 93.05 144.05 Q92.7 146.15 90.1 147.7 L88.75 148.35 Q77.75 153.1 34.75 153.1 L27.55 153.0 27.0 153.2 Q20.55 155.1 2.25 155.1 -3.9 155.1 -6.8 152.65 L-7.4 152.05 -8.25 152.1 -13.9 152.5 -37.3 154.65 Q-37.6 154.75 -37.5 155.0 L-40.1 155.1 Q-42.65 155.1 -46.9 151.65 L-50.7 148.3 -53.15 145.85 Q-64.15 134.4 -64.6 134.1 L-63.05 138.05 Q-61.8 141.45 -62.45 143.75 -62.75 144.85 -63.45 145.85 -63.1 147.85 -63.1 150.35 -63.1 154.2 -65.35 155.65 -69.25 158.1 -82.1 158.1 -95.9 158.1 -99.85 154.35 -101.55 152.7 -101.25 150.85 L-101.1 150.2 Q-101.1 149.25 -100.15 148.0 L-100.85 147.4 Q-101.65 146.6 -101.95 145.05 L-102.1 143.2 Q-102.1 130.75 -100.4 122.6 -99.55 118.6 -96.6 110.35 -93.95 102.9 -92.8 95.85 -91.1 85.25 -91.1 68.6 -91.1 65.7 -91.9 59.35 -92.75 52.65 -92.85 49.4 -93.2 37.45 -86.35 31.1 -77.4 22.8 -68.55 18.5 -64.65 16.6 -56.35 14.0 -53.55 13.15 -51.75 12.1 L-49.7 10.5 -49.35 10.05 Q-47.1 6.9 -47.1 -1.15 L-49.6 -22.1 Q-51.45 -37.25 -51.9 -45.7 L-52.1 -51.0 Q-52.1 -68.1 -50.15 -75.65 L-45.25 -91.15 -41.1 -105.4 Q-39.2 -112.1 -36.55 -117.8 L-32.6 -125.4 -28.85 -132.4 -26.0 -138.55 -24.3 -141.7 -24.05 -142.1 -23.85 -142.4 -23.4 -143.1 -21.85 -145.05 Q-17.0 -150.35 -6.7 -154.3 -2.35 -155.95 3.0 -157.4 M-14.5 -35.65 L-14.75 -35.7 -14.7 -35.15 -14.5 -35.65" fill="#33ffff" fill-rule="evenodd" stroke="none"/>
  </g>
</svg>
