<?xml version="1.0" encoding="UTF-8" standalone="no"?>
<svg xmlns:ffdec="https://www.free-decompiler.com/flash" xmlns:xlink="http://www.w3.org/1999/xlink" ffdec:objectType="shape" height="323.0px" width="184.3px" xmlns="http://www.w3.org/2000/svg">
  <g transform="matrix(1.0, 0.0, 0.0, 1.0, 92.15, 161.5)">
    <path d="M-86.45 153.6 L-85.45 130.6 -89.45 81.6 Q-90.7 67.1 -91.3 52.5 -92.55 23.25 -89.45 22.6 -87.9 22.3 -86.4 15.2 L-83.2 -0.75 Q-77.65 -24.7 -66.45 -29.4 -54.55 -34.4 -49.8 -37.9 -47.45 -39.65 -47.45 -40.4 L-49.25 -44.55 Q-51.25 -49.8 -52.2 -55.0 -55.2 -71.75 -46.45 -82.4 L-40.8 -95.9 Q-34.05 -110.4 -28.45 -115.4 -25.7 -117.85 -25.55 -124.05 L-25.45 -136.0 Q-24.0 -152.05 -4.45 -157.4 20.95 -164.3 38.7 -158.0 57.15 -151.45 61.55 -132.4 63.45 -124.1 66.3 -119.1 67.9 -116.25 70.95 -112.4 76.0 -104.9 76.55 -83.4 77.05 -64.55 72.45 -30.65 70.75 -18.5 70.8 -15.6 70.8 -11.3 73.55 -15.4 78.8 -23.25 83.7 -0.9 87.4 16.1 88.55 34.6 L91.05 76.0 Q92.45 106.15 90.55 110.6 89.3 113.5 90.8 130.35 92.3 147.45 89.55 154.6 86.45 162.75 -0.3 160.5 L-59.65 158.1 -86.45 156.6 -86.45 153.6" fill="#33ffff" fill-rule="evenodd" stroke="none"/>
    <path d="M-86.45 153.6 L-85.45 130.6 -89.45 81.6 Q-90.7 67.1 -91.3 52.5 -92.55 23.25 -89.45 22.6 -87.9 22.3 -86.4 15.2 L-83.2 -0.75 Q-77.65 -24.7 -66.45 -29.4 -54.55 -34.4 -49.8 -37.9 -47.45 -39.65 -47.45 -40.4 L-49.25 -44.55 Q-51.25 -49.8 -52.2 -55.0 -55.2 -71.75 -46.45 -82.4 L-40.8 -95.9 Q-34.05 -110.4 -28.45 -115.4 -25.7 -117.85 -25.55 -124.05 L-25.45 -136.0 Q-24.0 -152.05 -4.45 -157.4 20.95 -164.3 38.7 -158.0 57.15 -151.45 61.55 -132.4 63.45 -124.1 66.3 -119.1 67.9 -116.25 70.95 -112.4 76.0 -104.9 76.55 -83.4 77.05 -64.55 72.45 -30.65 70.75 -18.5 70.8 -15.6 70.8 -11.3 73.55 -15.4 78.8 -23.25 83.7 -0.9 87.4 16.1 88.55 34.6 L91.05 76.0 Q92.45 106.15 90.55 110.6 89.3 113.5 90.8 130.35 92.3 147.45 89.55 154.6 86.45 162.75 -0.3 160.5 L-59.65 158.1 -86.45 156.6" fill="none" stroke="#33ffff" stroke-linecap="round" stroke-linejoin="round" stroke-width="1.0"/>
  </g>
</svg>
