<?xml version="1.0" encoding="UTF-8" standalone="no"?>
<svg xmlns:ffdec="https://www.free-decompiler.com/flash" xmlns:xlink="http://www.w3.org/1999/xlink" ffdec:objectType="shape" height="202.9px" width="602.5px" xmlns="http://www.w3.org/2000/svg">
  <g transform="matrix(1.0, 0.0, 0.0, 1.0, -54.25, -42.8)">
    <path d="M656.75 176.0 L656.75 201.3 Q650.9 202.85 644.35 203.8 L628.25 204.6 Q606.3 204.6 596.35 195.6 586.3 186.55 586.3 166.05 L586.3 112.2 572.55 112.2 572.55 87.2 586.3 87.2 586.3 54.3 622.2 54.3 622.2 87.2 656.75 87.2 656.75 112.2 622.2 112.2 622.2 153.05 622.3 163.6 Q622.4 168.1 623.95 171.7 625.35 175.3 629.05 177.45 632.65 179.5 639.6 179.5 642.5 179.5 647.2 178.25 651.8 177.0 653.65 176.0 L656.75 176.0 M501.25 84.0 Q518.9 84.0 528.25 95.2 537.55 106.25 537.55 127.4 L537.55 202.35 501.45 202.35 501.45 145.25 Q501.45 138.25 500.95 131.4 500.35 124.4 498.8 121.15 496.95 117.25 493.45 115.6 490.0 113.85 484.15 113.85 479.75 113.85 475.2 115.5 470.7 117.15 465.6 120.75 L465.6 202.35 429.7 202.35 429.7 42.8 465.6 42.8 465.6 99.9 Q474.4 92.45 482.8 88.2 491.1 84.0 501.25 84.0 M346.15 92.35 L347.45 87.2 382.25 87.2 382.25 189.1 Q382.25 205.1 377.6 216.3 373.0 227.45 365.0 233.75 357.0 240.1 345.85 242.95 334.65 245.7 321.0 245.7 L299.3 244.3 Q288.9 242.75 281.35 240.8 L281.35 212.0 285.55 212.0 291.9 214.25 299.2 216.5 307.8 218.35 316.4 219.05 Q325.55 219.05 331.7 217.2 337.75 215.25 340.8 211.8 343.9 208.2 345.1 203.4 346.35 198.45 346.35 191.05 L346.35 188.9 Q340.3 194.25 332.4 197.55 324.4 200.7 316.0 200.7 293.65 200.7 281.55 186.15 269.35 171.6 269.35 141.85 269.35 128.3 273.15 117.55 276.8 106.8 283.5 99.2 289.85 91.9 298.85 88.0 307.9 84.0 317.65 84.0 326.45 84.0 333.4 86.3 340.4 88.55 346.15 92.35 M339.8 111.8 L332.0 111.0 Q319.05 111.0 312.6 119.4 306.05 127.7 306.05 142.65 306.05 150.15 307.05 155.4 308.0 160.5 310.65 164.5 313.2 168.4 317.45 170.45 321.55 172.4 328.0 172.4 332.8 172.4 337.55 170.75 342.15 169.15 346.35 166.05 L346.35 113.85 Q343.7 112.65 339.8 111.8 M231.1 42.8 L231.1 70.8 193.15 70.8 193.15 42.8 231.1 42.8 M156.45 78.8 L92.4 78.8 92.4 107.6 151.35 107.6 151.35 136.75 92.4 136.75 92.4 202.35 54.25 202.35 54.25 49.65 156.45 49.65 156.45 78.8 M230.1 87.2 L230.1 202.35 194.2 202.35 194.2 87.2 230.1 87.2" fill="#000000" fill-opacity="0.07058824" fill-rule="evenodd" stroke="none"/>
  </g>
</svg>
