<?xml version="1.0" encoding="UTF-8" standalone="no"?>
<svg xmlns:ffdec="https://www.free-decompiler.com/flash" xmlns:xlink="http://www.w3.org/1999/xlink" ffdec:objectType="shape" height="44.0px" width="201.0px" xmlns="http://www.w3.org/2000/svg">
  <g transform="matrix(1.0, 0.0, 0.0, 1.0, 0.0, 0.0)">
    <path d="M200.0 3.0 L200.0 2.0 201.0 2.0 201.0 42.0 200.0 42.0 200.0 41.0 200.0 40.0 200.0 39.0 200.0 38.0 200.0 11.0 200.0 10.0 200.0 9.0 200.0 8.0 200.0 7.0 200.0 6.0 200.0 5.0 200.0 4.0 200.0 3.0 M199.0 1.0 L200.0 1.0 200.0 2.0 199.0 2.0 199.0 1.0 198.0 1.0 197.0 1.0 196.0 1.0 195.0 1.0 10.0 1.0 8.0 1.0 7.0 1.0 6.0 1.0 5.0 1.0 4.0 1.0 2.0 1.0 2.0 2.0 1.0 2.0 1.0 3.0 1.0 4.0 1.0 5.0 1.0 6.0 1.0 7.0 1.0 8.0 1.0 9.0 1.0 10.0 1.0 11.0 1.0 38.0 1.0 39.0 1.0 40.0 1.0 42.0 2.0 42.0 2.0 43.0 4.0 43.0 5.0 43.0 6.0 43.0 7.0 43.0 8.0 43.0 9.0 43.0 10.0 43.0 195.0 43.0 196.0 43.0 197.0 43.0 199.0 43.0 199.0 42.0 200.0 42.0 200.0 43.0 199.0 43.0 199.0 44.0 2.0 44.0 2.0 43.0 1.0 43.0 1.0 42.0 0.0 42.0 0.0 2.0 1.0 2.0 1.0 1.0 2.0 1.0 2.0 0.0 199.0 0.0 199.0 1.0" fill="#003333" fill-rule="evenodd" stroke="none"/>
    <path d="M198.0 2.0 L199.0 2.0 199.0 3.0 198.0 3.0 198.0 2.0 M195.0 1.0 L195.0 2.0 10.0 2.0 10.0 1.0 195.0 1.0 M1.0 7.0 L1.0 6.0 2.0 6.0 2.0 7.0 1.0 7.0" fill="#bbbbbb" fill-rule="evenodd" stroke="none"/>
    <path d="M198.0 1.0 L198.0 2.0 197.0 2.0 197.0 1.0 198.0 1.0 M4.0 1.0 L5.0 1.0 5.0 2.0 4.0 2.0 4.0 1.0" fill="#b3b3b3" fill-rule="evenodd" stroke="none"/>
    <path d="M198.0 3.0 L199.0 3.0 199.0 4.0 198.0 4.0 198.0 3.0 M195.0 3.0 L195.0 2.0 196.0 2.0 196.0 3.0 195.0 3.0 M9.0 3.0 L9.0 2.0 10.0 2.0 10.0 3.0 9.0 3.0 M2.0 6.0 L3.0 6.0 3.0 7.0 2.0 7.0 2.0 6.0" fill="#c9c9c9" fill-rule="evenodd" stroke="none"/>
    <path d="M198.0 2.0 L198.0 3.0 197.0 3.0 197.0 2.0 198.0 2.0 M6.0 2.0 L6.0 3.0 5.0 3.0 5.0 2.0 6.0 2.0" fill="#c3c3c3" fill-rule="evenodd" stroke="none"/>
    <path d="M200.0 6.0 L200.0 7.0 199.0 7.0 199.0 6.0 200.0 6.0 M198.0 4.0 L199.0 4.0 199.0 5.0 198.0 5.0 198.0 4.0 M7.0 3.0 L8.0 3.0 8.0 4.0 7.0 4.0 7.0 3.0 M5.0 4.0 L5.0 5.0 4.0 5.0 4.0 4.0 5.0 4.0" fill="#d4d4d4" fill-rule="evenodd" stroke="none"/>
    <path d="M199.0 5.0 L199.0 6.0 198.0 6.0 198.0 5.0 199.0 5.0 M7.0 43.0 L6.0 43.0 6.0 42.0 7.0 42.0 7.0 43.0 M3.0 9.0 L3.0 8.0 4.0 8.0 4.0 9.0 3.0 9.0" fill="#dbdbdb" fill-rule="evenodd" stroke="none"/>
    <path d="M200.0 11.0 L200.0 38.0 199.0 38.0 199.0 11.0 200.0 11.0 M198.0 6.0 L199.0 6.0 199.0 7.0 198.0 7.0 198.0 6.0 M197.0 5.0 L196.0 5.0 196.0 4.0 197.0 4.0 197.0 5.0 M10.0 4.0 L10.0 5.0 9.0 5.0 9.0 4.0 10.0 4.0 M9.0 43.0 L8.0 43.0 8.0 42.0 9.0 42.0 9.0 43.0 M7.0 6.0 L6.0 6.0 6.0 5.0 7.0 5.0 7.0 6.0 M4.0 7.0 L5.0 7.0 5.0 8.0 4.0 8.0 4.0 7.0" fill="#e2e2e2" fill-rule="evenodd" stroke="none"/>
    <path d="M198.0 5.0 L198.0 6.0 197.0 6.0 197.0 5.0 198.0 5.0 M8.0 5.0 L8.0 6.0 7.0 6.0 7.0 5.0 8.0 5.0 M4.0 9.0 L4.0 8.0 5.0 8.0 5.0 9.0 4.0 9.0 M5.0 40.0 L5.0 41.0 4.0 41.0 4.0 40.0 5.0 40.0" fill="#e5e5e5" fill-rule="evenodd" stroke="none"/>
    <path d="M200.0 5.0 L200.0 6.0 199.0 6.0 199.0 5.0 200.0 5.0 M5.0 43.0 L4.0 43.0 4.0 42.0 5.0 42.0 5.0 43.0 M2.0 9.0 L3.0 9.0 3.0 10.0 2.0 10.0 2.0 9.0 M3.0 39.0 L3.0 40.0 2.0 40.0 2.0 39.0 3.0 39.0" fill="#cfcfcf" fill-rule="evenodd" stroke="none"/>
    <path d="M200.0 4.0 L200.0 5.0 199.0 5.0 199.0 4.0 200.0 4.0" fill="#c6c6c6" fill-rule="evenodd" stroke="none"/>
    <path d="M198.0 4.0 L198.0 5.0 197.0 5.0 197.0 4.0 198.0 4.0 M7.0 4.0 L8.0 4.0 8.0 5.0 7.0 5.0 7.0 4.0 M6.0 5.0 L6.0 6.0 5.0 6.0 5.0 5.0 6.0 5.0 M4.0 6.0 L5.0 6.0 5.0 7.0 4.0 7.0 4.0 6.0 M3.0 10.0 L4.0 10.0 4.0 11.0 3.0 11.0 3.0 10.0" fill="#dedede" fill-rule="evenodd" stroke="none"/>
    <path d="M200.0 3.0 L200.0 4.0 199.0 4.0 199.0 3.0 200.0 3.0 M1.0 8.0 L1.0 7.0 2.0 7.0 2.0 8.0 1.0 8.0" fill="#bcbcbc" fill-rule="evenodd" stroke="none"/>
    <path d="M198.0 3.0 L198.0 4.0 197.0 4.0 197.0 3.0 198.0 3.0 M3.0 11.0 L3.0 38.0 2.0 38.0 2.0 11.0 3.0 11.0 M3.0 41.0 L4.0 41.0 4.0 42.0 3.0 42.0 3.0 41.0" fill="#d1d1d1" fill-rule="evenodd" stroke="none"/>
    <path d="M195.0 1.0 L196.0 1.0 196.0 2.0 195.0 2.0 195.0 1.0 M10.0 1.0 L10.0 2.0 9.0 2.0 8.0 2.0 8.0 1.0 10.0 1.0 M3.0 3.0 L3.0 2.0 4.0 2.0 4.0 3.0 3.0 3.0 3.0 4.0 2.0 4.0 2.0 3.0 3.0 3.0" fill="#bababa" fill-rule="evenodd" stroke="none"/>
    <path d="M196.0 3.0 L196.0 2.0 197.0 2.0 197.0 3.0 196.0 3.0 M8.0 3.0 L8.0 2.0 9.0 2.0 9.0 3.0 8.0 3.0" fill="#c8c8c8" fill-rule="evenodd" stroke="none"/>
    <path d="M195.0 3.0 L196.0 3.0 196.0 4.0 10.0 4.0 10.0 3.0 195.0 3.0 M6.0 4.0 L6.0 5.0 5.0 5.0 5.0 4.0 6.0 4.0" fill="#d8d8d8" fill-rule="evenodd" stroke="none"/>
    <path d="M195.0 2.0 L195.0 3.0 10.0 3.0 10.0 2.0 195.0 2.0" fill="#cacaca" fill-rule="evenodd" stroke="none"/>
    <path d="M196.0 1.0 L197.0 1.0 197.0 2.0 196.0 2.0 196.0 1.0 M6.0 1.0 L7.0 1.0 7.0 2.0 6.0 2.0 6.0 1.0" fill="#b8b8b8" fill-rule="evenodd" stroke="none"/>
    <path d="M196.0 3.0 L197.0 3.0 197.0 4.0 196.0 4.0 196.0 3.0 M9.0 3.0 L10.0 3.0 10.0 4.0 9.0 4.0 9.0 3.0" fill="#d7d7d7" fill-rule="evenodd" stroke="none"/>
    <path d="M196.0 4.0 L196.0 5.0 10.0 5.0 10.0 4.0 196.0 4.0 M196.0 43.0 L195.0 43.0 195.0 42.0 196.0 42.0 196.0 43.0 M10.0 43.0 L9.0 43.0 9.0 42.0 10.0 42.0 10.0 43.0 M6.0 6.0 L6.0 7.0 5.0 7.0 5.0 6.0 6.0 6.0 M5.0 41.0 L6.0 41.0 6.0 42.0 5.0 42.0 5.0 41.0" fill="#e3e3e3" fill-rule="evenodd" stroke="none"/>
    <path d="M197.0 5.0 L197.0 6.0 10.0 6.0 10.0 5.0 196.0 5.0 197.0 5.0 M198.0 8.0 L199.0 8.0 199.0 9.0 198.0 9.0 198.0 8.0 M198.0 41.0 L198.0 42.0 197.0 42.0 197.0 41.0 198.0 41.0 M7.0 7.0 L7.0 6.0 8.0 6.0 8.0 7.0 7.0 7.0 M5.0 8.0 L6.0 8.0 6.0 9.0 5.0 9.0 5.0 8.0 M4.0 39.0 L4.0 11.0 5.0 11.0 5.0 39.0 4.0 39.0" fill="#eaeaea" fill-rule="evenodd" stroke="none"/>
    <path d="M197.0 10.0 L197.0 9.0 198.0 9.0 198.0 10.0 197.0 10.0" fill="#f7f7f7" fill-rule="evenodd" stroke="none"/>
    <path d="M197.0 9.0 L197.0 10.0 10.0 10.0 10.0 9.0 197.0 9.0 M8.0 11.0 L9.0 11.0 9.0 40.0 8.0 40.0 8.0 11.0" fill="#fcfcfc" fill-rule="evenodd" stroke="none"/>
    <path d="M197.0 8.0 L198.0 8.0 198.0 9.0 197.0 9.0 197.0 8.0 M198.0 40.0 L198.0 41.0 197.0 41.0 197.0 40.0 198.0 40.0 M9.0 7.0 L10.0 7.0 10.0 8.0 9.0 8.0 9.0 7.0 M6.0 10.0 L7.0 10.0 7.0 11.0 6.0 11.0 6.0 10.0" fill="#f4f4f4" fill-rule="evenodd" stroke="none"/>
    <path d="M197.0 10.0 L198.0 10.0 198.0 11.0 197.0 11.0 197.0 10.0 M197.0 8.0 L197.0 9.0 10.0 9.0 10.0 8.0 197.0 8.0 M198.0 39.0 L198.0 40.0 197.0 40.0 197.0 39.0 198.0 39.0 M8.0 9.0 L9.0 9.0 9.0 10.0 8.0 10.0 8.0 9.0 M7.0 11.0 L8.0 11.0 8.0 40.0 7.0 40.0 7.0 11.0" fill="#f9f9f9" fill-rule="evenodd" stroke="none"/>
    <path d="M197.0 10.0 L197.0 11.0 10.0 11.0 10.0 10.0 197.0 10.0 M197.0 39.0 L197.0 40.0 196.0 40.0 196.0 39.0 197.0 39.0 M9.0 11.0 L10.0 11.0 10.0 40.0 9.0 40.0 9.0 11.0" fill="#fefefe" fill-rule="evenodd" stroke="none"/>
    <path d="M10.0 6.0 L197.0 6.0 197.0 7.0 198.0 7.0 198.0 8.0 197.0 8.0 197.0 7.0 10.0 7.0 10.0 6.0 M198.0 11.0 L199.0 11.0 199.0 38.0 198.0 38.0 198.0 11.0 M196.0 41.0 L197.0 41.0 197.0 42.0 196.0 42.0 196.0 41.0 M5.0 11.0 L6.0 11.0 6.0 40.0 5.0 40.0 5.0 39.0 5.0 11.0" fill="#f0f0f0" fill-rule="evenodd" stroke="none"/>
    <path d="M10.0 7.0 L197.0 7.0 197.0 8.0 10.0 8.0 10.0 7.0 M8.0 40.0 L8.0 41.0 7.0 41.0 7.0 40.0 8.0 40.0 M6.0 11.0 L7.0 11.0 7.0 40.0 6.0 40.0 6.0 11.0" fill="#f5f5f5" fill-rule="evenodd" stroke="none"/>
    <path d="M200.0 7.0 L200.0 8.0 199.0 8.0 199.0 7.0 200.0 7.0 M4.0 8.0 L3.0 8.0 3.0 7.0 4.0 7.0 4.0 8.0" fill="#d9d9d9" fill-rule="evenodd" stroke="none"/>
    <path d="M200.0 8.0 L200.0 9.0 199.0 9.0 199.0 8.0 200.0 8.0 M200.0 41.0 L200.0 42.0 199.0 42.0 199.0 43.0 197.0 43.0 197.0 42.0 198.0 42.0 199.0 42.0 199.0 41.0 200.0 41.0 M7.0 4.0 L7.0 5.0 6.0 5.0 6.0 4.0 7.0 4.0 M3.0 9.0 L4.0 9.0 4.0 10.0 3.0 10.0 3.0 9.0 M4.0 41.0 L5.0 41.0 5.0 42.0 4.0 42.0 4.0 41.0" fill="#dcdcdc" fill-rule="evenodd" stroke="none"/>
    <path d="M198.0 7.0 L199.0 7.0 199.0 8.0 198.0 8.0 198.0 7.0 M9.0 5.0 L9.0 6.0 8.0 6.0 8.0 5.0 9.0 5.0 M6.0 6.0 L7.0 6.0 7.0 7.0 6.0 7.0 6.0 6.0 M5.0 7.0 L6.0 7.0 6.0 8.0 5.0 8.0 5.0 7.0 M4.0 9.0 L5.0 9.0 5.0 10.0 4.0 10.0 4.0 9.0" fill="#e7e7e7" fill-rule="evenodd" stroke="none"/>
    <path d="M198.0 9.0 L199.0 9.0 199.0 10.0 198.0 10.0 198.0 9.0 M8.0 6.0 L9.0 6.0 9.0 7.0 8.0 7.0 8.0 6.0 M5.0 9.0 L6.0 9.0 6.0 10.0 5.0 10.0 5.0 9.0" fill="#ededed" fill-rule="evenodd" stroke="none"/>
    <path d="M9.0 6.0 L10.0 6.0 10.0 7.0 9.0 7.0 9.0 6.0 M198.0 11.0 L198.0 10.0 199.0 10.0 199.0 11.0 198.0 11.0 M199.0 39.0 L198.0 39.0 198.0 38.0 199.0 38.0 199.0 39.0 M6.0 8.0 L7.0 8.0 7.0 7.0 8.0 7.0 8.0 8.0 7.0 8.0 7.0 9.0 6.0 9.0 6.0 8.0 M8.0 41.0 L9.0 41.0 9.0 42.0 8.0 42.0 8.0 41.0 M5.0 10.0 L6.0 10.0 6.0 11.0 5.0 11.0 5.0 10.0" fill="#efefef" fill-rule="evenodd" stroke="none"/>
    <path d="M200.0 10.0 L200.0 11.0 199.0 11.0 199.0 10.0 200.0 10.0 M200.0 38.0 L200.0 39.0 199.0 39.0 199.0 38.0 200.0 38.0 M197.0 43.0 L196.0 43.0 196.0 42.0 197.0 42.0 197.0 43.0" fill="#e1e1e1" fill-rule="evenodd" stroke="none"/>
    <path d="M200.0 9.0 L200.0 10.0 199.0 10.0 199.0 9.0 200.0 9.0 M200.0 39.0 L200.0 40.0 199.0 40.0 199.0 39.0 200.0 39.0 M8.0 43.0 L7.0 43.0 7.0 42.0 8.0 42.0 8.0 43.0 M198.0 42.0 L198.0 41.0 199.0 41.0 199.0 42.0 198.0 42.0 M3.0 11.0 L4.0 11.0 4.0 39.0 4.0 40.0 3.0 40.0 3.0 39.0 3.0 38.0 3.0 11.0" fill="#dfdfdf" fill-rule="evenodd" stroke="none"/>
    <path d="M197.0 6.0 L198.0 6.0 198.0 7.0 197.0 7.0 197.0 6.0 M6.0 7.0 L7.0 7.0 7.0 8.0 6.0 8.0 6.0 7.0" fill="#ebebeb" fill-rule="evenodd" stroke="none"/>
    <path d="M197.0 11.0 L198.0 11.0 198.0 38.0 198.0 39.0 197.0 39.0 197.0 11.0 M197.0 40.0 L197.0 41.0 196.0 41.0 196.0 40.0 197.0 40.0 M10.0 40.0 L10.0 41.0 9.0 41.0 9.0 40.0 10.0 40.0" fill="#fafafa" fill-rule="evenodd" stroke="none"/>
    <path d="M198.0 40.0 L198.0 39.0 199.0 39.0 199.0 40.0 198.0 40.0" fill="#eeeeee" fill-rule="evenodd" stroke="none"/>
    <path d="M10.0 5.0 L10.0 6.0 9.0 6.0 9.0 5.0 10.0 5.0 M198.0 40.0 L199.0 40.0 199.0 41.0 198.0 41.0 198.0 40.0 M6.0 41.0 L7.0 41.0 7.0 42.0 6.0 42.0 6.0 41.0 M4.0 11.0 L4.0 10.0 5.0 10.0 5.0 11.0 4.0 11.0 M4.0 40.0 L4.0 39.0 5.0 39.0 5.0 40.0 4.0 40.0" fill="#e9e9e9" fill-rule="evenodd" stroke="none"/>
    <path d="M200.0 40.0 L200.0 41.0 199.0 41.0 199.0 40.0 200.0 40.0 M4.0 5.0 L5.0 5.0 5.0 6.0 4.0 6.0 4.0 5.0 M3.0 40.0 L4.0 40.0 4.0 41.0 3.0 41.0 3.0 40.0" fill="#dadada" fill-rule="evenodd" stroke="none"/>
    <path d="M197.0 39.0 L196.0 39.0 196.0 40.0 10.0 40.0 10.0 11.0 197.0 11.0 197.0 39.0" fill="#ffffff" fill-rule="evenodd" stroke="none"/>
    <path d="M196.0 40.0 L196.0 41.0 195.0 41.0 10.0 41.0 10.0 40.0 196.0 40.0 M9.0 9.0 L10.0 9.0 10.0 10.0 9.0 10.0 9.0 9.0 M8.0 10.0 L9.0 10.0 9.0 11.0 8.0 11.0 8.0 10.0" fill="#fbfbfb" fill-rule="evenodd" stroke="none"/>
    <path d="M195.0 41.0 L196.0 41.0 196.0 42.0 195.0 42.0 195.0 41.0 M9.0 41.0 L10.0 41.0 10.0 42.0 9.0 42.0 9.0 41.0 M7.0 40.0 L7.0 41.0 6.0 41.0 6.0 40.0 7.0 40.0" fill="#f1f1f1" fill-rule="evenodd" stroke="none"/>
    <path d="M195.0 43.0 L10.0 43.0 10.0 42.0 195.0 42.0 195.0 43.0" fill="#e4e4e4" fill-rule="evenodd" stroke="none"/>
    <path d="M10.0 41.0 L195.0 41.0 195.0 42.0 10.0 42.0 10.0 41.0 M8.0 7.0 L9.0 7.0 9.0 8.0 8.0 8.0 8.0 7.0 M6.0 9.0 L7.0 9.0 7.0 10.0 6.0 10.0 6.0 9.0" fill="#f2f2f2" fill-rule="evenodd" stroke="none"/>
    <path d="M8.0 2.0 L8.0 3.0 7.0 3.0 7.0 2.0 8.0 2.0" fill="#c7c7c7" fill-rule="evenodd" stroke="none"/>
    <path d="M6.0 43.0 L5.0 43.0 5.0 42.0 6.0 42.0 6.0 43.0 M8.0 3.0 L9.0 3.0 9.0 4.0 8.0 4.0 8.0 3.0" fill="#d6d6d6" fill-rule="evenodd" stroke="none"/>
    <path d="M2.0 42.0 L1.0 42.0 1.0 40.0 2.0 40.0 2.0 41.0 2.0 42.0 M7.0 1.0 L8.0 1.0 8.0 2.0 7.0 2.0 7.0 1.0" fill="#b9b9b9" fill-rule="evenodd" stroke="none"/>
    <path d="M7.0 2.0 L7.0 3.0 6.0 3.0 6.0 2.0 7.0 2.0 M3.0 3.0 L4.0 3.0 4.0 4.0 3.0 4.0 3.0 3.0 M2.0 6.0 L2.0 5.0 3.0 5.0 3.0 6.0 2.0 6.0" fill="#c5c5c5" fill-rule="evenodd" stroke="none"/>
    <path d="M5.0 1.0 L6.0 1.0 6.0 2.0 5.0 2.0 5.0 1.0" fill="#b5b5b5" fill-rule="evenodd" stroke="none"/>
    <path d="M6.0 3.0 L7.0 3.0 7.0 4.0 6.0 4.0 6.0 3.0 M3.0 5.0 L4.0 5.0 4.0 6.0 3.0 6.0 3.0 5.0" fill="#d2d2d2" fill-rule="evenodd" stroke="none"/>
    <path d="M9.0 4.0 L9.0 5.0 8.0 5.0 8.0 4.0 9.0 4.0" fill="#e0e0e0" fill-rule="evenodd" stroke="none"/>
    <path d="M6.0 4.0 L5.0 4.0 5.0 3.0 6.0 3.0 6.0 4.0 M2.0 11.0 L2.0 10.0 3.0 10.0 3.0 11.0 2.0 11.0 M3.0 38.0 L3.0 39.0 2.0 39.0 2.0 38.0 3.0 38.0" fill="#d0d0d0" fill-rule="evenodd" stroke="none"/>
    <path d="M3.0 2.0 L3.0 3.0 2.0 3.0 2.0 2.0 3.0 2.0" fill="#b1b1b1" fill-rule="evenodd" stroke="none"/>
    <path d="M1.0 38.0 L1.0 11.0 2.0 11.0 2.0 38.0 1.0 38.0 M4.0 3.0 L4.0 2.0 5.0 2.0 5.0 3.0 4.0 3.0" fill="#c0c0c0" fill-rule="evenodd" stroke="none"/>
    <path d="M5.0 3.0 L5.0 4.0 4.0 4.0 4.0 3.0 5.0 3.0" fill="#cccccc" fill-rule="evenodd" stroke="none"/>
    <path d="M200.0 2.0 L200.0 3.0 199.0 3.0 199.0 2.0 198.0 2.0 198.0 1.0 199.0 1.0 199.0 2.0 200.0 2.0 M1.0 3.0 L1.0 2.0 2.0 2.0 2.0 1.0 4.0 1.0 4.0 2.0 3.0 2.0 2.0 2.0 2.0 3.0 1.0 3.0" fill="#adadad" fill-rule="evenodd" stroke="none"/>
    <path d="M1.0 4.0 L1.0 3.0 2.0 3.0 2.0 4.0 1.0 4.0" fill="#aeaeae" fill-rule="evenodd" stroke="none"/>
    <path d="M1.0 6.0 L1.0 5.0 2.0 5.0 2.0 6.0 1.0 6.0" fill="#b7b7b7" fill-rule="evenodd" stroke="none"/>
    <path d="M2.0 4.0 L3.0 4.0 3.0 5.0 2.0 5.0 2.0 4.0 M2.0 42.0 L2.0 41.0 3.0 41.0 3.0 42.0 2.0 42.0" fill="#c2c2c2" fill-rule="evenodd" stroke="none"/>
    <path d="M1.0 5.0 L1.0 4.0 2.0 4.0 2.0 5.0 1.0 5.0" fill="#b4b4b4" fill-rule="evenodd" stroke="none"/>
    <path d="M4.0 4.0 L4.0 5.0 3.0 5.0 3.0 4.0 4.0 4.0 M3.0 8.0 L3.0 9.0 2.0 9.0 2.0 8.0 3.0 8.0" fill="#cdcdcd" fill-rule="evenodd" stroke="none"/>
    <path d="M3.0 6.0 L4.0 6.0 4.0 7.0 3.0 7.0 3.0 6.0" fill="#d5d5d5" fill-rule="evenodd" stroke="none"/>
    <path d="M2.0 7.0 L3.0 7.0 3.0 8.0 2.0 8.0 2.0 7.0 M2.0 41.0 L2.0 40.0 3.0 40.0 3.0 41.0 2.0 41.0" fill="#cbcbcb" fill-rule="evenodd" stroke="none"/>
    <path d="M1.0 9.0 L1.0 8.0 2.0 8.0 2.0 9.0 1.0 9.0" fill="#bdbdbd" fill-rule="evenodd" stroke="none"/>
    <path d="M1.0 40.0 L1.0 39.0 2.0 39.0 2.0 40.0 1.0 40.0 M1.0 10.0 L1.0 9.0 2.0 9.0 2.0 10.0 1.0 10.0" fill="#bebebe" fill-rule="evenodd" stroke="none"/>
    <path d="M1.0 39.0 L1.0 38.0 2.0 38.0 2.0 39.0 1.0 39.0 M1.0 11.0 L1.0 10.0 2.0 10.0 2.0 11.0 1.0 11.0" fill="#bfbfbf" fill-rule="evenodd" stroke="none"/>
    <path d="M8.0 8.0 L8.0 9.0 7.0 9.0 7.0 8.0 8.0 8.0" fill="#f3f3f3" fill-rule="evenodd" stroke="none"/>
    <path d="M9.0 8.0 L9.0 9.0 8.0 9.0 8.0 8.0 9.0 8.0 M7.0 9.0 L8.0 9.0 8.0 10.0 7.0 10.0 7.0 9.0" fill="#f6f6f6" fill-rule="evenodd" stroke="none"/>
    <path d="M10.0 8.0 L10.0 9.0 9.0 9.0 9.0 8.0 10.0 8.0 M9.0 40.0 L9.0 41.0 8.0 41.0 8.0 40.0 9.0 40.0 M7.0 10.0 L8.0 10.0 8.0 11.0 7.0 11.0 7.0 10.0" fill="#f8f8f8" fill-rule="evenodd" stroke="none"/>
    <path d="M9.0 10.0 L10.0 10.0 10.0 11.0 9.0 11.0 9.0 10.0" fill="#fdfdfd" fill-rule="evenodd" stroke="none"/>
    <path d="M7.0 41.0 L8.0 41.0 8.0 42.0 7.0 42.0 7.0 41.0 M6.0 40.0 L6.0 41.0 5.0 41.0 5.0 40.0 6.0 40.0" fill="#ececec" fill-rule="evenodd" stroke="none"/>
    <path d="M4.0 43.0 L2.0 43.0 2.0 42.0 3.0 42.0 4.0 42.0 4.0 43.0" fill="#c4c4c4" fill-rule="evenodd" stroke="none"/>
  </g>
</svg>
