<?xml version="1.0" encoding="UTF-8" standalone="no"?>
<svg xmlns:ffdec="https://www.free-decompiler.com/flash" xmlns:xlink="http://www.w3.org/1999/xlink" ffdec:objectType="shape" height="42.3px" width="138.65px" xmlns="http://www.w3.org/2000/svg">
  <g transform="matrix(1.0, 0.0, 0.0, 1.0, -2.7, 1.65)">
    <path d="M79.4 -1.65 L136.05 -1.65 Q141.3 -1.65 141.35 4.4 L141.35 34.55 Q141.3 40.6 136.05 40.65 L79.4 40.65 79.4 -1.65 79.4 40.65 8.0 40.65 Q2.7 40.6 2.7 34.55 L2.7 4.4 Q2.7 -1.65 8.0 -1.65 L79.4 -1.65" fill="#222222" fill-opacity="0.2509804" fill-rule="evenodd" stroke="none"/>
    <path d="M79.4 0.15 L133.1 0.15 Q136.9 0.15 138.05 2.85 138.55 3.95 138.6 5.55 L138.6 5.8 138.6 33.2 Q138.6 38.8 133.1 38.85 L79.4 38.85 79.4 0.15 79.4 38.85 10.9 38.85 8.3 38.45 Q5.4 37.3 5.4 33.2 L5.4 5.8 5.4 5.55 Q5.4 3.95 5.95 2.85 6.6 1.2 8.3 0.55 L10.9 0.15 79.4 0.15" fill="#000000" fill-rule="evenodd" stroke="none"/>
    <path d="M126.95 37.05 L126.95 1.95 131.3 1.95 131.4 1.95 131.55 1.95 Q136.8 2.05 136.85 7.5 L136.85 31.55 Q136.8 37.05 131.3 37.05 L126.95 37.05" fill="url(#gradient0)" fill-rule="evenodd" stroke="none"/>
    <path d="M126.95 1.95 L126.95 37.05 79.45 37.05 79.45 1.95 126.95 1.95" fill="url(#gradient1)" fill-rule="evenodd" stroke="none"/>
    <path d="M72.0 37.05 L12.75 37.05 Q7.2 37.05 7.25 31.55 L7.25 7.5 Q7.25 2.05 12.5 1.95 L12.65 1.95 12.75 1.95 72.0 1.95 72.0 37.05" fill="url(#gradient2)" fill-rule="evenodd" stroke="none"/>
    <path d="M72.0 1.95 L79.4 1.95 79.4 37.05 72.0 37.05 72.0 1.95" fill="url(#gradient3)" fill-rule="evenodd" stroke="none"/>
    <path d="M136.7 5.2 L136.95 6.45 Q133.85 10.8 118.65 14.05 99.5 18.15 72.45 18.15 45.4 18.15 26.3 14.05 8.85 10.3 7.35 5.1 7.95 4.05 8.9 3.15 9.7 2.3 11.0 2.15 L11.15 2.05 66.05 2.05 66.05 2.0 133.25 2.0 134.1 2.25 135.45 3.25 135.7 3.4 Q136.3 4.1 136.7 5.2" fill="#e9ffff" fill-opacity="0.2" fill-rule="evenodd" stroke="none"/>
  </g>
  <defs>
    <linearGradient gradientTransform="matrix(0.0, 0.0203, -0.0214, 0.0, 94.05, 19.05)" gradientUnits="userSpaceOnUse" id="gradient0" spreadMethod="pad" x1="-819.2" x2="819.2">
      <stop offset="0.0" stop-color="#88bff7"/>
      <stop offset="1.0" stop-color="#0b6097"/>
    </linearGradient>
    <linearGradient gradientTransform="matrix(-1.0E-4, 0.0203, -0.1136, 0.0, -44.95, 19.05)" gradientUnits="userSpaceOnUse" id="gradient1" spreadMethod="pad" x1="-819.2" x2="819.2">
      <stop offset="0.0" stop-color="#88bff7"/>
      <stop offset="1.0" stop-color="#0b6097"/>
    </linearGradient>
    <linearGradient gradientTransform="matrix(0.0, 0.0203, -0.0214, 0.0, 49.95, 19.05)" gradientUnits="userSpaceOnUse" id="gradient2" spreadMethod="pad" x1="-819.2" x2="819.2">
      <stop offset="0.0" stop-color="#88bff7"/>
      <stop offset="1.0" stop-color="#0b6097"/>
    </linearGradient>
    <linearGradient gradientTransform="matrix(-1.0E-4, 0.0203, -0.125, 0.0, -57.4, 19.05)" gradientUnits="userSpaceOnUse" id="gradient3" spreadMethod="pad" x1="-819.2" x2="819.2">
      <stop offset="0.0" stop-color="#88bff7"/>
      <stop offset="1.0" stop-color="#0b6097"/>
    </linearGradient>
  </defs>
</svg>
