<?xml version="1.0" encoding="UTF-8" standalone="no"?>
<svg xmlns:ffdec="https://www.free-decompiler.com/flash" xmlns:xlink="http://www.w3.org/1999/xlink" ffdec:objectType="shape" height="47.0px" width="105.05px" xmlns="http://www.w3.org/2000/svg">
  <g transform="matrix(1.0, 0.0, 0.0, 1.0, 5.0, 4.0)">
    <path d="M0.9 -4.0 L94.15 -4.0 Q100.0 -4.0 100.05 2.7 L100.05 36.25 Q100.0 42.95 94.15 43.0 L0.9 43.0 Q-5.0 42.95 -5.0 36.25 L-5.0 2.7 Q-5.0 -4.0 0.9 -4.0" fill="#222222" fill-opacity="0.2509804" fill-rule="evenodd" stroke="none"/>
    <path d="M1.25 -1.55 L4.1 -2.0 90.9 -2.0 Q95.1 -2.0 96.4 1.0 96.95 2.25 97.0 4.0 L97.0 4.3 97.0 34.7 Q97.0 40.95 90.9 41.0 L4.1 41.0 1.25 40.55 Q-2.0 39.3 -2.0 34.7 L-2.0 4.3 -2.0 4.0 Q-2.0 2.25 -1.4 1.0 -0.65 -0.85 1.25 -1.55" fill="#000000" fill-rule="evenodd" stroke="none"/>
    <path d="M89.2 0.0 Q95.05 0.15 95.05 6.15 L95.05 32.85 Q95.05 39.0 88.9 39.0 L6.15 39.0 Q0.0 39.0 0.05 32.85 L0.05 6.15 Q0.0 0.15 5.9 0.0 L6.05 0.0 6.15 0.0 88.9 0.0 89.0 0.0 89.2 0.0" fill="url(#gradient0)" fill-rule="evenodd" stroke="none"/>
    <path d="M94.9 4.1 L95.0 4.25 Q94.7 9.9 81.1 13.9 67.2 18.0 47.5 18.0 27.8 18.0 13.9 13.9 0.6 9.95 0.05 4.45 L0.1 4.25 Q0.55 2.7 1.75 1.55 2.9 0.4 4.6 0.0 L90.55 0.0 92.35 0.7 Q93.65 1.25 94.35 2.6 L94.75 3.6 94.9 4.1" fill="#e9ffff" fill-opacity="0.2" fill-rule="evenodd" stroke="none"/>
  </g>
  <defs>
    <linearGradient gradientTransform="matrix(0.0, -0.0238, 0.0238, 0.0, 47.1, 17.55)" gradientUnits="userSpaceOnUse" id="gradient0" spreadMethod="pad" x1="-819.2" x2="819.2">
      <stop offset="0.0" stop-color="#0b6097"/>
      <stop offset="1.0" stop-color="#88bff7"/>
    </linearGradient>
  </defs>
</svg>
