<?xml version="1.0" encoding="UTF-8" standalone="no"?>
<svg xmlns:ffdec="https://www.free-decompiler.com/flash" xmlns:xlink="http://www.w3.org/1999/xlink" ffdec:objectType="shape" height="20.6px" width="195.8px" xmlns="http://www.w3.org/2000/svg">
  <g transform="matrix(1.0, 0.0, 0.0, 1.0, 97.95, 9.7)">
    <path d="M4.9 -4.6 L1.25 -4.6 1.25 7.95 -3.25 8.25 -3.25 -4.6 -7.15 -4.6 -6.6 -8.05 4.9 -8.05 4.9 -4.6 M11.7 -2.1 L16.45 -2.1 16.45 1.35 11.7 1.35 11.7 4.5 18.5 4.5 17.65 7.95 7.45 7.95 7.45 -8.05 17.25 -8.05 17.9 -4.6 11.7 -4.6 11.7 -2.1 M23.65 -8.25 L25.95 -8.3 Q29.55 -8.3 31.5 -6.9 33.4 -5.55 33.45 -2.95 33.4 -1.55 32.7 -0.4 31.9 0.75 30.5 1.45 L33.55 6.55 29.95 8.6 25.05 -0.4 25.8 -0.3 Q27.15 -0.3 28.05 -0.95 28.85 -1.55 28.85 -2.45 28.85 -3.5 28.15 -4.05 27.4 -4.65 26.15 -4.6 L25.6 -4.6 24.85 -4.5 24.85 7.95 20.65 8.25 20.65 -8.05 23.65 -8.25 M35.05 -3.25 Q35.05 -5.55 36.7 -7.05 38.3 -8.65 40.75 -8.65 L43.9 -8.0 Q45.4 -7.35 46.6 -6.1 L44.4 -2.8 Q43.75 -3.9 42.95 -4.5 42.05 -5.1 41.05 -5.1 40.25 -5.1 39.8 -4.7 39.35 -4.35 39.35 -3.7 39.35 -2.6 41.55 -2.15 L42.65 -1.9 Q44.7 -1.4 45.8 -0.2 46.8 1.0 46.8 2.95 46.8 5.45 45.05 7.05 43.3 8.55 40.4 8.55 L37.7 8.25 Q36.4 7.9 35.4 7.25 L35.4 2.7 Q36.45 3.7 37.75 4.3 L40.15 4.85 Q41.15 4.85 41.75 4.4 42.3 3.95 42.3 3.2 42.3 2.45 41.85 2.1 41.3 1.65 39.95 1.4 37.2 0.85 36.15 -0.2 35.05 -1.25 35.05 -3.25 M56.55 -2.0 Q56.15 -3.0 56.15 -4.05 56.1 -6.2 57.75 -7.5 59.35 -8.85 62.05 -8.85 64.65 -8.85 66.25 -7.5 67.8 -6.15 67.85 -3.9 67.85 -2.95 67.45 -2.1 67.1 -1.25 66.35 -0.35 67.3 0.35 67.75 1.3 68.15 2.2 68.15 3.4 68.15 5.75 66.5 7.15 64.85 8.5 62.0 8.5 59.3 8.5 57.6 7.15 55.85 5.75 55.9 3.6 55.85 2.45 56.4 1.5 56.9 0.55 57.8 -0.2 57.0 -1.0 56.55 -2.0 M60.55 -2.8 Q61.0 -2.1 61.95 -1.25 L63.3 -2.8 63.8 -4.2 63.25 -5.45 Q62.7 -6.0 61.95 -5.95 61.15 -6.0 60.65 -5.45 60.1 -4.9 60.1 -4.2 60.1 -3.6 60.55 -2.8 M79.35 -8.7 L71.5 10.15 69.15 10.15 77.05 -8.7 79.35 -8.7 M89.0 -3.25 L97.1 -8.85 97.1 7.95 93.3 8.25 93.3 -2.35 90.8 -0.4 89.0 -3.25 M81.0 -0.4 L79.15 -3.25 87.25 -8.85 87.25 7.95 83.45 8.25 83.45 -2.35 81.0 -0.4 M62.0 0.55 Q61.0 1.4 60.5 2.15 60.05 2.8 60.05 3.55 60.05 4.35 60.6 4.95 61.15 5.45 62.0 5.5 62.85 5.45 63.4 4.95 L63.95 3.55 Q63.95 2.8 63.5 2.15 63.05 1.4 62.0 0.55 M-92.8 -8.3 L-92.8 7.95 -97.2 8.25 -97.2 -8.05 -92.8 -8.3 M-80.0 -8.05 L-75.85 -8.3 -75.85 8.6 -85.15 0.1 -84.9 7.95 -89.05 8.25 -89.05 -8.7 -79.7 -0.15 -80.0 -8.05 M-66.15 -4.6 L-65.6 -8.05 -54.1 -8.05 -54.1 -4.6 -57.75 -4.6 -57.75 7.95 -62.25 8.25 -62.25 -4.6 -66.15 -4.6 M-47.15 -8.3 L-47.15 -1.85 -41.8 -1.85 -41.8 -8.05 -37.4 -8.3 -37.4 7.95 -41.8 8.25 -41.8 1.65 -47.15 1.65 -47.15 7.95 -51.55 8.25 -51.55 -8.05 -47.15 -8.3 M-23.25 -4.6 L-29.45 -4.6 -29.45 -2.1 -24.65 -2.1 -24.65 1.35 -29.45 1.35 -29.45 4.5 -22.65 4.5 -23.15 6.55 -15.1 -8.95 -6.55 6.85 -10.3 8.25 -11.5 5.75 -18.35 5.75 -19.5 8.25 -23.25 7.0 -23.5 7.95 -33.65 7.95 -33.65 -8.05 -23.85 -8.05 -23.25 -4.6 M-12.9 2.7 L-14.95 -1.8 -16.95 2.7 -12.9 2.7" fill="#ffffff" fill-rule="evenodd" stroke="none"/>
    <path d="M4.9 -4.6 L1.25 -4.6 1.25 7.95 -3.25 8.25 -3.25 -4.6 -7.15 -4.6 -6.6 -8.05 4.9 -8.05 4.9 -4.6 M11.7 -2.1 L16.45 -2.1 16.45 1.35 11.7 1.35 11.7 4.5 18.5 4.5 17.65 7.95 7.45 7.95 7.45 -8.05 17.25 -8.05 17.9 -4.6 11.7 -4.6 11.7 -2.1 M23.65 -8.25 L25.95 -8.3 Q29.55 -8.3 31.5 -6.9 33.4 -5.55 33.45 -2.95 33.4 -1.55 32.7 -0.4 31.9 0.75 30.5 1.45 L33.55 6.55 29.95 8.6 25.05 -0.4 25.8 -0.3 Q27.15 -0.3 28.05 -0.95 28.85 -1.55 28.85 -2.45 28.85 -3.5 28.15 -4.05 27.4 -4.65 26.15 -4.6 L25.6 -4.6 24.85 -4.5 24.85 7.95 20.65 8.25 20.65 -8.05 23.65 -8.25 M35.05 -3.25 Q35.05 -5.55 36.7 -7.05 38.3 -8.65 40.75 -8.65 L43.9 -8.0 Q45.4 -7.35 46.6 -6.1 L44.4 -2.8 Q43.75 -3.9 42.95 -4.5 42.05 -5.1 41.05 -5.1 40.25 -5.1 39.8 -4.7 39.35 -4.35 39.35 -3.7 39.35 -2.6 41.55 -2.15 L42.65 -1.9 Q44.7 -1.4 45.8 -0.2 46.8 1.0 46.8 2.95 46.8 5.45 45.05 7.05 43.3 8.55 40.4 8.55 L37.7 8.25 Q36.4 7.9 35.4 7.25 L35.4 2.7 Q36.45 3.7 37.75 4.3 L40.15 4.85 Q41.15 4.85 41.75 4.4 42.3 3.95 42.3 3.2 42.3 2.45 41.85 2.1 41.3 1.65 39.95 1.4 37.2 0.85 36.15 -0.2 35.05 -1.25 35.05 -3.25 M56.55 -2.0 Q56.15 -3.0 56.15 -4.05 56.1 -6.2 57.75 -7.5 59.35 -8.85 62.05 -8.85 64.65 -8.85 66.25 -7.5 67.8 -6.15 67.85 -3.9 67.85 -2.95 67.45 -2.1 67.1 -1.25 66.35 -0.35 67.3 0.35 67.75 1.3 68.15 2.2 68.15 3.4 68.15 5.75 66.5 7.15 64.85 8.5 62.0 8.5 59.3 8.5 57.6 7.15 55.85 5.75 55.9 3.6 55.85 2.45 56.4 1.5 56.9 0.55 57.8 -0.2 57.0 -1.0 56.55 -2.0 M60.55 -2.8 Q61.0 -2.1 61.95 -1.25 L63.3 -2.8 63.8 -4.2 63.25 -5.45 Q62.7 -6.0 61.95 -5.95 61.15 -6.0 60.65 -5.45 60.1 -4.9 60.1 -4.2 60.1 -3.6 60.55 -2.8 M79.35 -8.7 L71.5 10.15 69.15 10.15 77.05 -8.7 79.35 -8.7 M89.0 -3.25 L97.1 -8.85 97.1 7.95 93.3 8.25 93.3 -2.35 90.8 -0.4 89.0 -3.25 M81.0 -0.4 L79.15 -3.25 87.25 -8.85 87.25 7.95 83.45 8.25 83.45 -2.35 81.0 -0.4 M62.0 0.55 Q61.0 1.4 60.5 2.15 60.05 2.8 60.05 3.55 60.05 4.35 60.6 4.95 61.15 5.45 62.0 5.5 62.85 5.45 63.4 4.95 L63.95 3.55 Q63.95 2.8 63.5 2.15 63.05 1.4 62.0 0.55 M-92.8 -8.3 L-92.8 7.95 -97.2 8.25 -97.2 -8.05 -92.8 -8.3 M-80.0 -8.05 L-75.85 -8.3 -75.85 8.6 -85.15 0.1 -84.9 7.95 -89.05 8.25 -89.05 -8.7 -79.7 -0.15 -80.0 -8.05 M-66.15 -4.6 L-65.6 -8.05 -54.1 -8.05 -54.1 -4.6 -57.75 -4.6 -57.75 7.95 -62.25 8.25 -62.25 -4.6 -66.15 -4.6 M-47.15 -8.3 L-47.15 -1.85 -41.8 -1.85 -41.8 -8.05 -37.4 -8.3 -37.4 7.95 -41.8 8.25 -41.8 1.65 -47.15 1.65 -47.15 7.95 -51.55 8.25 -51.55 -8.05 -47.15 -8.3 M-23.25 -4.6 L-29.45 -4.6 -29.45 -2.1 -24.65 -2.1 -24.65 1.35 -29.45 1.35 -29.45 4.5 -22.65 4.5 -23.15 6.55 -15.1 -8.95 -6.55 6.85 -10.3 8.25 -11.5 5.75 -18.35 5.75 -19.5 8.25 -23.25 7.0 -23.5 7.95 -33.65 7.95 -33.65 -8.05 -23.85 -8.05 -23.25 -4.6 M-12.9 2.7 L-14.95 -1.8 -16.95 2.7 -12.9 2.7 Z" fill="none" stroke="#122e6d" stroke-linecap="round" stroke-linejoin="round" stroke-width="1.5"/>
  </g>
</svg>
