<?xml version="1.0" encoding="UTF-8" standalone="no"?>
<svg xmlns:ffdec="https://www.free-decompiler.com/flash" xmlns:xlink="http://www.w3.org/1999/xlink" ffdec:objectType="shape" height="39.0px" width="75.75px" xmlns="http://www.w3.org/2000/svg">
  <g transform="matrix(1.0, 0.0, 0.0, 1.0, 0.0, 0.0)">
    <path d="M0.0 1.0 L0.0 0.0 75.75 0.0 75.75 1.0 0.0 1.0 M75.75 38.0 L75.75 39.0 0.0 39.0 0.0 38.0 75.75 38.0" fill="#333333" fill-rule="evenodd" stroke="none"/>
    <path d="M75.75 2.0 L75.75 3.0 74.9 3.0 67.9 3.0 67.9 2.0 75.75 2.0 M52.9 3.0 L51.9 3.0 50.9 3.0 45.9 3.0 45.9 2.0 52.9 2.0 52.9 3.0" fill="#ffdb39" fill-rule="evenodd" stroke="none"/>
    <path d="M75.75 3.0 L75.75 4.0 74.9 4.0 74.9 3.0 75.75 3.0 M51.9 4.0 L50.9 4.0 50.9 3.0 51.9 3.0 51.9 4.0 M17.9 4.0 L15.9 4.0 15.9 3.0 17.9 3.0 17.9 4.0 M12.9 4.0 L11.9 4.0 11.9 3.0 12.9 3.0 12.9 4.0" fill="#ffd324" fill-rule="evenodd" stroke="none"/>
    <path d="M0.0 1.0 L75.75 1.0 75.75 2.0 67.9 2.0 58.9 2.0 57.9 2.0 52.9 2.0 45.9 2.0 43.9 2.0 8.9 2.0 4.9 2.0 0.0 2.0 0.0 1.0" fill="#ffe356" fill-rule="evenodd" stroke="none"/>
    <path d="M75.75 4.0 L75.75 5.0 37.9 5.0 37.9 4.0 50.9 4.0 51.9 4.0 74.9 4.0 75.75 4.0 M0.0 5.0 L0.0 4.0 0.9 4.0 2.9 4.0 2.9 5.0 0.0 5.0 M36.9 5.0 L27.9 5.0 27.9 4.0 36.9 4.0 36.9 5.0 M26.9 5.0 L3.9 5.0 3.9 4.0 11.9 4.0 12.9 4.0 15.9 4.0 17.9 4.0 18.9 4.0 23.9 4.0 24.9 4.0 26.9 4.0 26.9 5.0" fill="#ffcc13" fill-rule="evenodd" stroke="none"/>
    <path d="M75.75 5.0 L75.75 6.0 61.9 6.0 41.9 6.0 39.9 6.0 30.9 6.0 20.9 6.0 16.9 6.0 11.9 6.0 4.9 6.0 0.0 6.0 0.0 5.0 2.9 5.0 3.9 5.0 26.9 5.0 27.9 5.0 36.9 5.0 37.9 5.0 75.75 5.0" fill="#ffc707" fill-rule="evenodd" stroke="none"/>
    <path d="M0.0 4.0 L0.0 3.0 0.9 3.0 0.9 4.0 0.0 4.0 M74.9 4.0 L51.9 4.0 51.9 3.0 52.9 3.0 57.9 3.0 58.9 3.0 67.9 3.0 74.9 3.0 74.9 4.0 M50.9 4.0 L37.9 4.0 36.9 4.0 27.9 4.0 26.9 4.0 24.9 4.0 24.9 3.0 43.9 3.0 45.9 3.0 50.9 3.0 50.9 4.0 M23.9 3.0 L23.9 4.0 18.9 4.0 18.9 3.0 23.9 3.0 M15.9 3.0 L15.9 4.0 12.9 4.0 12.9 3.0 15.9 3.0 M11.9 4.0 L3.9 4.0 2.9 4.0 2.9 3.0 4.9 3.0 8.9 3.0 11.9 3.0 11.9 4.0" fill="#ffd323" fill-rule="evenodd" stroke="none"/>
    <path d="M75.75 8.0 L75.75 9.0 74.9 9.0 73.9 9.0 71.9 9.0 67.9 9.0 54.9 9.0 51.9 9.0 44.9 9.0 43.9 9.0 42.9 9.0 41.9 9.0 36.9 9.0 35.9 9.0 29.9 9.0 28.9 9.0 0.0 9.0 0.0 8.0 75.75 8.0" fill="#ffbf06" fill-rule="evenodd" stroke="none"/>
    <path d="M75.75 9.0 L75.75 10.0 74.9 10.0 74.9 9.0 75.75 9.0 M0.0 10.0 L0.0 9.0 28.9 9.0 28.9 10.0 0.0 10.0 M72.9 10.0 L71.9 10.0 71.9 9.0 73.9 9.0 73.9 10.0 72.9 10.0 M67.9 10.0 L63.9 10.0 60.9 10.0 54.9 10.0 54.9 9.0 67.9 9.0 67.9 10.0 M51.9 10.0 L44.9 10.0 44.9 9.0 51.9 9.0 51.9 10.0 M43.9 10.0 L42.9 10.0 42.9 9.0 43.9 9.0 43.9 10.0 M41.9 10.0 L36.9 10.0 36.9 9.0 41.9 9.0 41.9 10.0 M35.9 10.0 L34.9 10.0 33.9 10.0 29.9 10.0 29.9 9.0 35.9 9.0 35.9 10.0" fill="#ffbd07" fill-rule="evenodd" stroke="none"/>
    <path d="M73.9 9.0 L74.9 9.0 74.9 10.0 73.9 10.0 73.9 9.0 M44.9 10.0 L43.9 10.0 43.9 9.0 44.9 9.0 44.9 10.0 M42.9 10.0 L41.9 10.0 41.9 9.0 42.9 9.0 42.9 10.0 M36.9 10.0 L35.9 10.0 35.9 9.0 36.9 9.0 36.9 10.0 M28.9 10.0 L28.9 9.0 29.9 9.0 29.9 10.0 28.9 10.0" fill="#ffbe08" fill-rule="evenodd" stroke="none"/>
    <path d="M75.75 7.0 L75.75 8.0 0.0 8.0 0.0 7.0 4.9 7.0 11.9 7.0 16.9 7.0 20.9 7.0 30.9 7.0 39.9 7.0 41.9 7.0 61.9 7.0 75.75 7.0" fill="#ffc204" fill-rule="evenodd" stroke="none"/>
    <path d="M75.75 10.0 L75.75 11.0 73.9 11.0 73.9 10.0 74.9 10.0 75.75 10.0 M0.0 11.0 L0.0 10.0 28.9 10.0 29.9 10.0 33.9 10.0 33.9 11.0 0.0 11.0 M72.9 10.0 L72.9 11.0 71.9 11.0 71.9 10.0 72.9 10.0 M70.9 10.0 L70.9 11.0 63.9 11.0 63.9 10.0 67.9 10.0 70.9 10.0 M60.9 10.0 L60.9 11.0 40.9 11.0 37.9 11.0 35.9 11.0 34.9 11.0 34.9 10.0 35.9 10.0 36.9 10.0 41.9 10.0 42.9 10.0 43.9 10.0 44.9 10.0 51.9 10.0 54.9 10.0 60.9 10.0" fill="#ffbb08" fill-rule="evenodd" stroke="none"/>
    <path d="M71.9 10.0 L70.9 10.0 67.9 10.0 67.9 9.0 71.9 9.0 71.9 10.0 M54.9 10.0 L51.9 10.0 51.9 9.0 54.9 9.0 54.9 10.0" fill="#ffbe07" fill-rule="evenodd" stroke="none"/>
    <path d="M72.9 11.0 L72.9 10.0 73.9 10.0 73.9 11.0 72.9 11.0 M71.9 10.0 L71.9 11.0 70.9 11.0 70.9 10.0 71.9 10.0 M34.9 10.0 L34.9 11.0 33.9 11.0 33.9 10.0 34.9 10.0" fill="#ffbc09" fill-rule="evenodd" stroke="none"/>
    <path d="M75.75 11.0 L75.75 12.0 40.9 12.0 40.9 11.0 60.9 11.0 63.9 11.0 70.9 11.0 71.9 11.0 72.9 11.0 73.9 11.0 75.75 11.0 M0.0 12.0 L0.0 11.0 33.9 11.0 34.9 11.0 35.9 11.0 35.9 12.0 0.0 12.0" fill="#ffb809" fill-rule="evenodd" stroke="none"/>
    <path d="M75.75 6.0 L75.75 7.0 61.9 7.0 61.9 6.0 75.75 6.0 M0.0 7.0 L0.0 6.0 4.9 6.0 4.9 7.0 0.0 7.0 M30.9 6.0 L30.9 7.0 20.9 7.0 20.9 6.0 30.9 6.0 M11.9 7.0 L11.9 6.0 16.9 6.0 16.9 7.0 11.9 7.0" fill="#ffc404" fill-rule="evenodd" stroke="none"/>
    <path d="M75.75 12.0 L75.75 13.0 74.9 13.0 69.9 13.0 67.9 13.0 26.9 13.0 25.9 13.0 2.9 13.0 1.9 13.0 0.0 13.0 0.0 12.0 35.9 12.0 37.9 12.0 40.9 12.0 75.75 12.0" fill="#ffb60a" fill-rule="evenodd" stroke="none"/>
    <path d="M75.75 13.0 L75.75 14.0 74.9 14.0 74.9 13.0 75.75 13.0 M26.9 13.0 L26.9 14.0 25.9 14.0 25.9 13.0 26.9 13.0 M1.9 14.0 L1.9 13.0 2.9 13.0 2.9 14.0 1.9 14.0" fill="#ffb40d" fill-rule="evenodd" stroke="none"/>
    <path d="M75.75 14.0 L75.75 15.0 58.9 15.0 57.9 15.0 55.9 15.0 54.9 15.0 50.9 15.0 49.9 15.0 48.9 15.0 48.9 14.0 67.9 14.0 69.9 14.0 74.9 14.0 75.75 14.0 M0.0 15.0 L0.0 14.0 1.9 14.0 2.9 14.0 25.9 14.0 26.9 14.0 26.9 15.0 14.9 15.0 13.9 15.0 12.9 15.0 11.9 15.0 0.0 15.0 M28.9 14.0 L41.9 14.0 41.9 15.0 38.9 15.0 36.9 15.0 34.9 15.0 32.9 15.0 28.9 15.0 28.9 14.0 M43.9 14.0 L44.9 14.0 44.9 15.0 43.9 15.0 43.9 14.0" fill="#ffb00d" fill-rule="evenodd" stroke="none"/>
    <path d="M0.0 14.0 L0.0 13.0 1.9 13.0 1.9 14.0 0.0 14.0 M74.9 13.0 L74.9 14.0 69.9 14.0 69.9 13.0 74.9 13.0 M67.9 14.0 L48.9 14.0 44.9 14.0 43.9 14.0 41.9 14.0 28.9 14.0 26.9 14.0 26.9 13.0 67.9 13.0 67.9 14.0 M25.9 13.0 L25.9 14.0 2.9 14.0 2.9 13.0 25.9 13.0" fill="#ffb30c" fill-rule="evenodd" stroke="none"/>
    <path d="M75.75 16.0 L75.75 17.0 58.9 17.0 57.9 17.0 54.9 17.0 54.9 16.0 55.9 16.0 57.9 16.0 58.9 16.0 75.75 16.0 M0.0 17.0 L0.0 16.0 0.9 16.0 0.9 17.0 0.0 17.0 M53.9 16.0 L53.9 17.0 48.9 17.0 46.9 17.0 42.9 17.0 41.9 17.0 32.9 17.0 30.9 17.0 16.9 17.0 15.9 17.0 1.9 17.0 1.9 16.0 11.9 16.0 12.9 16.0 13.9 16.0 14.9 16.0 32.9 16.0 34.9 16.0 36.9 16.0 38.9 16.0 49.9 16.0 50.9 16.0 53.9 16.0" fill="#ffab10" fill-rule="evenodd" stroke="none"/>
    <path d="M75.75 17.0 L75.75 18.0 58.9 18.0 58.9 17.0 75.75 17.0 M0.0 18.0 L0.0 17.0 0.9 17.0 1.9 17.0 15.9 17.0 15.9 18.0 0.0 18.0 M54.9 17.0 L57.9 17.0 57.9 18.0 48.9 18.0 48.9 17.0 53.9 17.0 54.9 17.0 M16.9 17.0 L30.9 17.0 30.9 18.0 16.9 18.0 16.9 17.0 M32.9 17.0 L41.9 17.0 41.9 18.0 32.9 18.0 32.9 17.0" fill="#ffa811" fill-rule="evenodd" stroke="none"/>
    <path d="M75.75 15.0 L75.75 16.0 58.9 16.0 58.9 15.0 75.75 15.0 M0.0 16.0 L0.0 15.0 11.9 15.0 11.9 16.0 1.9 16.0 0.9 16.0 0.0 16.0 M48.9 15.0 L49.9 15.0 49.9 16.0 38.9 16.0 38.9 15.0 41.9 15.0 43.9 15.0 44.9 15.0 48.9 15.0 M50.9 15.0 L54.9 15.0 54.9 16.0 53.9 16.0 50.9 16.0 50.9 15.0 M32.9 16.0 L14.9 16.0 14.9 15.0 26.9 15.0 28.9 15.0 32.9 15.0 32.9 16.0" fill="#ffae0e" fill-rule="evenodd" stroke="none"/>
    <path d="M75.75 19.0 L75.75 20.0 73.9 20.0 73.9 19.0 75.75 19.0 M54.9 20.0 L54.9 19.0 57.9 19.0 57.9 20.0 54.9 20.0 M3.9 20.0 L3.9 19.0 7.9 19.0 7.9 20.0 3.9 20.0" fill="#ffa314" fill-rule="evenodd" stroke="none"/>
    <path d="M73.9 19.0 L73.9 20.0 72.9 20.0 72.9 19.0 73.9 19.0 M71.9 19.0 L71.9 20.0 69.9 20.0 69.9 19.0 71.9 19.0 M54.9 19.0 L54.9 20.0 48.9 20.0 48.9 19.0 54.9 19.0 M57.9 20.0 L57.9 19.0 65.9 19.0 65.9 20.0 57.9 20.0 M68.9 19.0 L68.9 20.0 67.9 20.0 67.9 19.0 68.9 19.0 M43.9 20.0 L43.9 19.0 47.9 19.0 47.9 20.0 43.9 20.0 M42.9 19.0 L42.9 20.0 20.9 20.0 20.9 19.0 42.9 19.0 M19.9 19.0 L19.9 20.0 9.9 20.0 9.9 19.0 19.9 19.0 M3.9 20.0 L0.9 20.0 0.9 19.0 3.9 19.0 3.9 20.0 M7.9 19.0 L8.9 19.0 8.9 20.0 7.9 20.0 7.9 19.0" fill="#ffa214" fill-rule="evenodd" stroke="none"/>
    <path d="M75.75 18.0 L75.75 19.0 73.9 19.0 72.9 19.0 71.9 19.0 69.9 19.0 68.9 19.0 67.9 19.0 65.9 19.0 57.9 19.0 54.9 19.0 48.9 19.0 47.9 19.0 43.9 19.0 42.9 19.0 20.9 19.0 19.9 19.0 9.9 19.0 8.9 19.0 7.9 19.0 3.9 19.0 0.9 19.0 0.0 19.0 0.0 18.0 15.9 18.0 16.9 18.0 30.9 18.0 32.9 18.0 41.9 18.0 42.9 18.0 46.9 18.0 48.9 18.0 57.9 18.0 58.9 18.0 75.75 18.0" fill="#ffa513" fill-rule="evenodd" stroke="none"/>
    <path d="M75.75 20.0 L75.75 21.0 67.9 21.0 66.9 21.0 65.9 21.0 60.9 21.0 59.9 21.0 56.9 21.0 54.9 21.0 53.9 21.0 37.9 21.0 33.9 21.0 29.9 21.0 28.9 21.0 24.9 21.0 20.9 21.0 15.9 21.0 14.9 21.0 8.9 21.0 4.9 21.0 0.0 21.0 0.0 20.0 0.9 20.0 3.9 20.0 7.9 20.0 8.9 20.0 9.9 20.0 19.9 20.0 20.9 20.0 42.9 20.0 43.9 20.0 47.9 20.0 48.9 20.0 54.9 20.0 57.9 20.0 65.9 20.0 67.9 20.0 68.9 20.0 69.9 20.0 71.9 20.0 72.9 20.0 73.9 20.0 75.75 20.0" fill="#ff9f16" fill-rule="evenodd" stroke="none"/>
    <path d="M71.9 20.0 L71.9 19.0 72.9 19.0 72.9 20.0 71.9 20.0 M69.9 19.0 L69.9 20.0 68.9 20.0 68.9 19.0 69.9 19.0 M48.9 19.0 L48.9 20.0 47.9 20.0 47.9 19.0 48.9 19.0 M67.9 20.0 L65.9 20.0 65.9 19.0 67.9 19.0 67.9 20.0 M43.9 19.0 L43.9 20.0 42.9 20.0 42.9 19.0 43.9 19.0 M19.9 20.0 L19.9 19.0 20.9 19.0 20.9 20.0 19.9 20.0 M9.9 19.0 L9.9 20.0 8.9 20.0 8.9 19.0 9.9 19.0" fill="#ffa315" fill-rule="evenodd" stroke="none"/>
    <path d="M75.75 23.0 L75.75 24.0 71.9 24.0 71.9 23.0 75.75 23.0 M66.9 23.0 L66.9 24.0 63.9 24.0 63.9 23.0 66.9 23.0 M57.9 24.0 L57.9 23.0 61.9 23.0 61.9 24.0 57.9 24.0" fill="#ff971a" fill-rule="evenodd" stroke="none"/>
    <path d="M0.0 24.0 L0.0 23.0 2.9 23.0 6.9 23.0 6.9 24.0 0.0 24.0 M71.9 23.0 L71.9 24.0 66.9 24.0 66.9 23.0 71.9 23.0 M57.9 23.0 L57.9 24.0 45.9 24.0 45.9 23.0 57.9 23.0 M61.9 24.0 L61.9 23.0 63.9 23.0 63.9 24.0 61.9 24.0 M44.9 23.0 L44.9 24.0 8.9 24.0 8.9 23.0 21.9 23.0 24.9 23.0 44.9 23.0" fill="#ff961a" fill-rule="evenodd" stroke="none"/>
    <path d="M75.75 22.0 L75.75 23.0 71.9 23.0 66.9 23.0 63.9 23.0 61.9 23.0 57.9 23.0 45.9 23.0 44.9 23.0 24.9 23.0 24.9 22.0 28.9 22.0 29.9 22.0 33.9 22.0 37.9 22.0 53.9 22.0 54.9 22.0 56.9 22.0 59.9 22.0 60.9 22.0 65.9 22.0 66.9 22.0 67.9 22.0 75.75 22.0 M14.9 22.0 L15.9 22.0 20.9 22.0 21.9 22.0 21.9 23.0 8.9 23.0 6.9 23.0 2.9 23.0 2.9 22.0 4.9 22.0 8.9 22.0 14.9 22.0" fill="#ff9918" fill-rule="evenodd" stroke="none"/>
    <path d="M75.75 21.0 L75.75 22.0 67.9 22.0 67.9 21.0 75.75 21.0 M0.0 22.0 L0.0 21.0 4.9 21.0 4.9 22.0 2.9 22.0 0.0 22.0 M53.9 21.0 L53.9 22.0 37.9 22.0 37.9 21.0 53.9 21.0 M60.9 22.0 L60.9 21.0 65.9 21.0 65.9 22.0 60.9 22.0 M14.9 21.0 L14.9 22.0 8.9 22.0 8.9 21.0 14.9 21.0 M15.9 22.0 L15.9 21.0 20.9 21.0 20.9 22.0 15.9 22.0 M24.9 22.0 L24.9 21.0 28.9 21.0 28.9 22.0 24.9 22.0" fill="#ff9c17" fill-rule="evenodd" stroke="none"/>
    <path d="M75.75 24.0 L75.75 25.0 2.9 25.0 1.9 25.0 0.0 25.0 0.0 24.0 6.9 24.0 8.9 24.0 44.9 24.0 45.9 24.0 57.9 24.0 61.9 24.0 63.9 24.0 66.9 24.0 71.9 24.0 75.75 24.0" fill="#ff931b" fill-rule="evenodd" stroke="none"/>
    <path d="M75.75 25.0 L75.75 26.0 71.9 26.0 70.9 26.0 24.9 26.0 23.9 26.0 21.9 26.0 18.9 26.0 17.9 26.0 2.9 26.0 2.9 25.0 75.75 25.0 M0.0 26.0 L0.0 25.0 1.9 25.0 1.9 26.0 0.0 26.0" fill="#ff911d" fill-rule="evenodd" stroke="none"/>
    <path d="M75.75 26.0 L75.75 27.0 71.9 27.0 71.9 26.0 75.75 26.0 M0.0 27.0 L0.0 26.0 1.9 26.0 2.9 26.0 17.9 26.0 17.9 27.0 0.0 27.0 M70.9 26.0 L70.9 27.0 42.9 27.0 31.9 27.0 24.9 27.0 24.9 26.0 70.9 26.0 M18.9 26.0 L21.9 26.0 21.9 27.0 18.9 27.0 18.9 26.0" fill="#ff8e1e" fill-rule="evenodd" stroke="none"/>
    <path d="M70.9 26.0 L71.9 26.0 71.9 27.0 70.9 27.0 70.9 26.0 M17.9 26.0 L18.9 26.0 18.9 27.0 17.9 27.0 17.9 26.0 M21.9 26.0 L23.9 26.0 23.9 27.0 21.9 27.0 21.9 26.0" fill="#ff8f1e" fill-rule="evenodd" stroke="none"/>
    <path d="M75.75 27.0 L75.75 28.0 42.9 28.0 42.9 27.0 70.9 27.0 71.9 27.0 75.75 27.0 M0.0 28.0 L0.0 27.0 17.9 27.0 18.9 27.0 21.9 27.0 23.9 27.0 24.9 27.0 31.9 27.0 31.9 28.0 0.0 28.0" fill="#ff8b1f" fill-rule="evenodd" stroke="none"/>
    <path d="M72.9 30.0 L72.9 29.0 73.9 29.0 73.9 30.0 72.9 30.0 M68.9 29.0 L68.9 30.0 67.9 30.0 67.9 29.0 68.9 29.0 M49.9 30.0 L49.9 29.0 50.9 29.0 50.9 30.0 49.9 30.0 M29.9 30.0 L28.9 30.0 28.9 29.0 29.9 29.0 29.9 30.0 M27.9 30.0 L26.9 30.0 26.9 29.0 27.9 29.0 27.9 30.0" fill="#ff8723" fill-rule="evenodd" stroke="none"/>
    <path d="M75.75 29.0 L75.75 30.0 73.9 30.0 73.9 29.0 75.75 29.0 M0.0 30.0 L0.0 29.0 1.9 29.0 1.9 30.0 0.0 30.0 M72.9 29.0 L72.9 30.0 68.9 30.0 68.9 29.0 72.9 29.0 M49.9 29.0 L49.9 30.0 45.9 30.0 45.9 29.0 49.9 29.0 M50.9 30.0 L50.9 29.0 67.9 29.0 67.9 30.0 50.9 30.0 M43.9 29.0 L43.9 30.0 42.9 30.0 40.9 30.0 40.9 29.0 43.9 29.0 M38.9 29.0 L38.9 30.0 37.9 30.0 29.9 30.0 29.9 29.0 38.9 29.0 M28.9 30.0 L27.9 30.0 27.9 29.0 28.9 29.0 28.9 30.0 M26.9 30.0 L20.9 30.0 19.9 30.0 6.9 30.0 3.9 30.0 3.9 29.0 26.9 29.0 26.9 30.0" fill="#ff8622" fill-rule="evenodd" stroke="none"/>
    <path d="M75.75 28.0 L75.75 29.0 73.9 29.0 72.9 29.0 68.9 29.0 67.9 29.0 50.9 29.0 49.9 29.0 45.9 29.0 43.9 29.0 40.9 29.0 38.9 29.0 29.9 29.0 28.9 29.0 27.9 29.0 26.9 29.0 3.9 29.0 1.9 29.0 0.0 29.0 0.0 28.0 31.9 28.0 42.9 28.0 75.75 28.0" fill="#ff8821" fill-rule="evenodd" stroke="none"/>
    <path d="M75.75 30.0 L75.75 31.0 74.9 31.0 73.9 31.0 68.9 31.0 67.9 31.0 54.9 31.0 53.9 31.0 42.9 31.0 42.9 30.0 43.9 30.0 45.9 30.0 49.9 30.0 50.9 30.0 67.9 30.0 68.9 30.0 72.9 30.0 73.9 30.0 75.75 30.0 M35.9 31.0 L32.9 31.0 20.9 31.0 20.9 30.0 26.9 30.0 27.9 30.0 28.9 30.0 29.9 30.0 37.9 30.0 37.9 31.0 35.9 31.0 M19.9 31.0 L16.9 31.0 14.9 31.0 12.9 31.0 11.9 31.0 6.9 31.0 6.9 30.0 19.9 30.0 19.9 31.0 M2.9 30.0 L3.9 30.0 3.9 31.0 2.9 31.0 2.9 30.0" fill="#ff8323" fill-rule="evenodd" stroke="none"/>
    <path d="M75.75 31.0 L75.75 32.0 74.9 32.0 74.9 31.0 75.75 31.0 M67.9 32.0 L54.9 32.0 54.9 31.0 67.9 31.0 67.9 32.0 M14.9 32.0 L12.9 32.0 12.9 31.0 14.9 31.0 14.9 32.0" fill="#ff8125" fill-rule="evenodd" stroke="none"/>
    <path d="M75.75 32.0 L75.75 33.0 0.0 33.0 0.0 32.0 11.9 32.0 12.9 32.0 14.9 32.0 16.9 32.0 32.9 32.0 35.9 32.0 53.9 32.0 54.9 32.0 67.9 32.0 68.9 32.0 73.9 32.0 74.9 32.0 75.75 32.0" fill="#ff7f26" fill-rule="evenodd" stroke="none"/>
    <path d="M74.9 31.0 L74.9 32.0 73.9 32.0 73.9 31.0 74.9 31.0 M68.9 32.0 L67.9 32.0 67.9 31.0 68.9 31.0 68.9 32.0 M54.9 32.0 L53.9 32.0 53.9 31.0 54.9 31.0 54.9 32.0 M35.9 32.0 L32.9 32.0 32.9 31.0 35.9 31.0 35.9 32.0 M16.9 32.0 L14.9 32.0 14.9 31.0 16.9 31.0 16.9 32.0 M12.9 32.0 L11.9 32.0 11.9 31.0 12.9 31.0 12.9 32.0" fill="#ff8224" fill-rule="evenodd" stroke="none"/>
    <path d="M0.0 32.0 L0.0 31.0 2.9 31.0 3.9 31.0 6.9 31.0 11.9 31.0 11.9 32.0 0.0 32.0 M73.9 32.0 L68.9 32.0 68.9 31.0 73.9 31.0 73.9 32.0 M53.9 32.0 L35.9 32.0 35.9 31.0 37.9 31.0 42.9 31.0 53.9 31.0 53.9 32.0 M32.9 32.0 L16.9 32.0 16.9 31.0 19.9 31.0 20.9 31.0 32.9 31.0 32.9 32.0" fill="#ff8124" fill-rule="evenodd" stroke="none"/>
    <path d="M75.75 33.0 L75.75 34.0 0.0 34.0 0.0 33.0 75.75 33.0" fill="#ff812b" fill-rule="evenodd" stroke="none"/>
    <path d="M75.75 35.0 L75.75 36.0 0.0 36.0 0.0 35.0 75.75 35.0" fill="#ff9146" fill-rule="evenodd" stroke="none"/>
    <path d="M75.75 36.0 L75.75 37.0 0.0 37.0 0.0 36.0 75.75 36.0" fill="#ffa059" fill-rule="evenodd" stroke="none"/>
    <path d="M75.75 34.0 L75.75 35.0 0.0 35.0 0.0 34.0 75.75 34.0" fill="#ff8636" fill-rule="evenodd" stroke="none"/>
    <path d="M75.75 37.0 L75.75 38.0 0.0 38.0 0.0 37.0 75.75 37.0" fill="#ffb472" fill-rule="evenodd" stroke="none"/>
    <path d="M63.9 10.0 L63.9 11.0 60.9 11.0 60.9 10.0 63.9 10.0" fill="#ffbb09" fill-rule="evenodd" stroke="none"/>
    <path d="M0.0 3.0 L0.0 2.0 4.9 2.0 4.9 3.0 2.9 3.0 0.9 3.0 0.0 3.0 M67.9 2.0 L67.9 3.0 58.9 3.0 58.9 2.0 67.9 2.0 M57.9 2.0 L57.9 3.0 52.9 3.0 52.9 2.0 57.9 2.0 M43.9 2.0 L43.9 3.0 24.9 3.0 23.9 3.0 18.9 3.0 17.9 3.0 15.9 3.0 12.9 3.0 11.9 3.0 8.9 3.0 8.9 2.0 43.9 2.0" fill="#ffda39" fill-rule="evenodd" stroke="none"/>
    <path d="M61.9 6.0 L61.9 7.0 41.9 7.0 41.9 6.0 61.9 6.0 M39.9 6.0 L39.9 7.0 30.9 7.0 30.9 6.0 39.9 6.0 M20.9 6.0 L20.9 7.0 16.9 7.0 16.9 6.0 20.9 6.0 M11.9 6.0 L11.9 7.0 4.9 7.0 4.9 6.0 11.9 6.0" fill="#ffc403" fill-rule="evenodd" stroke="none"/>
    <path d="M57.9 2.0 L58.9 2.0 58.9 3.0 57.9 3.0 57.9 2.0 M45.9 2.0 L45.9 3.0 43.9 3.0 43.9 2.0 45.9 2.0 M8.9 3.0 L4.9 3.0 4.9 2.0 8.9 2.0 8.9 3.0" fill="#ffda3a" fill-rule="evenodd" stroke="none"/>
    <path d="M55.9 15.0 L57.9 15.0 57.9 16.0 55.9 16.0 55.9 15.0 M36.9 16.0 L34.9 16.0 34.9 15.0 36.9 15.0 36.9 16.0 M13.9 16.0 L12.9 16.0 12.9 15.0 13.9 15.0 13.9 16.0" fill="#ffae0f" fill-rule="evenodd" stroke="none"/>
    <path d="M57.9 17.0 L58.9 17.0 58.9 18.0 57.9 18.0 57.9 17.0 M15.9 17.0 L16.9 17.0 16.9 18.0 15.9 18.0 15.9 17.0 M30.9 17.0 L32.9 17.0 32.9 18.0 30.9 18.0 30.9 17.0 M41.9 17.0 L42.9 17.0 42.9 18.0 41.9 18.0 41.9 17.0 M46.9 17.0 L48.9 17.0 48.9 18.0 46.9 18.0 46.9 17.0" fill="#ffa911" fill-rule="evenodd" stroke="none"/>
    <path d="M49.9 15.0 L50.9 15.0 50.9 16.0 49.9 16.0 49.9 15.0 M54.9 15.0 L55.9 15.0 55.9 16.0 54.9 16.0 54.9 15.0 M57.9 15.0 L58.9 15.0 58.9 16.0 57.9 16.0 57.9 15.0 M38.9 16.0 L36.9 16.0 36.9 15.0 38.9 15.0 38.9 16.0 M34.9 16.0 L32.9 16.0 32.9 15.0 34.9 15.0 34.9 16.0 M14.9 16.0 L13.9 16.0 13.9 15.0 14.9 15.0 14.9 16.0 M12.9 16.0 L11.9 16.0 11.9 15.0 12.9 15.0 12.9 16.0" fill="#ffad0e" fill-rule="evenodd" stroke="none"/>
    <path d="M54.9 16.0 L54.9 17.0 53.9 17.0 53.9 16.0 54.9 16.0" fill="#ffac10" fill-rule="evenodd" stroke="none"/>
    <path d="M54.9 22.0 L54.9 21.0 56.9 21.0 56.9 22.0 54.9 22.0 M59.9 22.0 L59.9 21.0 60.9 21.0 60.9 22.0 59.9 22.0 M65.9 21.0 L66.9 21.0 66.9 22.0 65.9 22.0 65.9 21.0 M33.9 21.0 L33.9 22.0 29.9 22.0 29.9 21.0 33.9 21.0" fill="#ff9d17" fill-rule="evenodd" stroke="none"/>
    <path d="M54.9 21.0 L54.9 22.0 53.9 22.0 53.9 21.0 54.9 21.0 M56.9 22.0 L56.9 21.0 59.9 21.0 59.9 22.0 56.9 22.0 M66.9 21.0 L67.9 21.0 67.9 22.0 66.9 22.0 66.9 21.0 M33.9 22.0 L33.9 21.0 37.9 21.0 37.9 22.0 33.9 22.0 M29.9 21.0 L29.9 22.0 28.9 22.0 28.9 21.0 29.9 21.0 M14.9 22.0 L14.9 21.0 15.9 21.0 15.9 22.0 14.9 22.0 M8.9 21.0 L8.9 22.0 4.9 22.0 4.9 21.0 8.9 21.0 M24.9 22.0 L21.9 22.0 20.9 22.0 20.9 21.0 24.9 21.0 24.9 22.0" fill="#ff9c18" fill-rule="evenodd" stroke="none"/>
    <path d="M69.9 14.0 L67.9 14.0 67.9 13.0 69.9 13.0 69.9 14.0" fill="#ffb40c" fill-rule="evenodd" stroke="none"/>
    <path d="M40.9 11.0 L40.9 12.0 37.9 12.0 37.9 11.0 40.9 11.0" fill="#ffb909" fill-rule="evenodd" stroke="none"/>
    <path d="M41.9 6.0 L41.9 7.0 39.9 7.0 39.9 6.0 41.9 6.0" fill="#ffc504" fill-rule="evenodd" stroke="none"/>
    <path d="M37.9 4.0 L37.9 5.0 36.9 5.0 36.9 4.0 37.9 4.0 M27.9 5.0 L26.9 5.0 26.9 4.0 27.9 4.0 27.9 5.0 M3.9 5.0 L2.9 5.0 2.9 4.0 3.9 4.0 3.9 5.0" fill="#ffcc14" fill-rule="evenodd" stroke="none"/>
    <path d="M35.9 11.0 L37.9 11.0 37.9 12.0 35.9 12.0 35.9 11.0" fill="#ffb80a" fill-rule="evenodd" stroke="none"/>
    <path d="M48.9 14.0 L48.9 15.0 44.9 15.0 44.9 14.0 48.9 14.0 M26.9 14.0 L28.9 14.0 28.9 15.0 26.9 15.0 26.9 14.0" fill="#ffb10d" fill-rule="evenodd" stroke="none"/>
    <path d="M42.9 17.0 L46.9 17.0 46.9 18.0 42.9 18.0 42.9 17.0" fill="#ffa812" fill-rule="evenodd" stroke="none"/>
    <path d="M41.9 14.0 L43.9 14.0 43.9 15.0 41.9 15.0 41.9 14.0" fill="#ffb00e" fill-rule="evenodd" stroke="none"/>
    <path d="M45.9 23.0 L45.9 24.0 44.9 24.0 44.9 23.0 45.9 23.0 M6.9 24.0 L6.9 23.0 8.9 23.0 8.9 24.0 6.9 24.0" fill="#ff971b" fill-rule="evenodd" stroke="none"/>
    <path d="M45.9 29.0 L45.9 30.0 43.9 30.0 43.9 29.0 45.9 29.0 M1.9 30.0 L1.9 29.0 3.9 29.0 3.9 30.0 2.9 30.0 1.9 30.0" fill="#ff8722" fill-rule="evenodd" stroke="none"/>
    <path d="M0.0 31.0 L0.0 30.0 1.9 30.0 2.9 30.0 2.9 31.0 0.0 31.0 M40.9 30.0 L42.9 30.0 42.9 31.0 37.9 31.0 37.9 30.0 38.9 30.0 40.9 30.0 M3.9 31.0 L3.9 30.0 6.9 30.0 6.9 31.0 3.9 31.0" fill="#ff8423" fill-rule="evenodd" stroke="none"/>
    <path d="M40.9 29.0 L40.9 30.0 38.9 30.0 38.9 29.0 40.9 29.0" fill="#ff8623" fill-rule="evenodd" stroke="none"/>
    <path d="M42.9 27.0 L42.9 28.0 31.9 28.0 31.9 27.0 42.9 27.0" fill="#ff8c1f" fill-rule="evenodd" stroke="none"/>
    <path d="M23.9 3.0 L24.9 3.0 24.9 4.0 23.9 4.0 23.9 3.0 M17.9 4.0 L17.9 3.0 18.9 3.0 18.9 4.0 17.9 4.0 M2.9 3.0 L2.9 4.0 0.9 4.0 0.9 3.0 2.9 3.0" fill="#ffd423" fill-rule="evenodd" stroke="none"/>
    <path d="M21.9 23.0 L21.9 22.0 24.9 22.0 24.9 23.0 21.9 23.0" fill="#ff9a19" fill-rule="evenodd" stroke="none"/>
    <path d="M0.0 20.0 L0.0 19.0 0.9 19.0 0.9 20.0 0.0 20.0" fill="#ffa215" fill-rule="evenodd" stroke="none"/>
    <path d="M0.0 23.0 L0.0 22.0 2.9 22.0 2.9 23.0 0.0 23.0" fill="#ff9919" fill-rule="evenodd" stroke="none"/>
    <path d="M1.9 16.0 L1.9 17.0 0.9 17.0 0.9 16.0 1.9 16.0" fill="#ffab11" fill-rule="evenodd" stroke="none"/>
    <path d="M2.9 25.0 L2.9 26.0 1.9 26.0 1.9 25.0 2.9 25.0" fill="#ff921e" fill-rule="evenodd" stroke="none"/>
    <path d="M23.9 26.0 L24.9 26.0 24.9 27.0 23.9 27.0 23.9 26.0" fill="#ff8e1f" fill-rule="evenodd" stroke="none"/>
    <path d="M20.9 31.0 L19.9 31.0 19.9 30.0 20.9 30.0 20.9 31.0" fill="#ff8424" fill-rule="evenodd" stroke="none"/>
  </g>
</svg>
