<?xml version="1.0" encoding="UTF-8" standalone="no"?>
<svg xmlns:ffdec="https://www.free-decompiler.com/flash" xmlns:xlink="http://www.w3.org/1999/xlink" ffdec:objectType="shape" height="25.3px" width="26.0px" xmlns="http://www.w3.org/2000/svg">
  <g transform="matrix(1.0, 0.0, 0.0, 1.0, 0.75, -12.2)">
    <path d="M25.2 12.2 L25.2 37.45 -0.75 37.45 -0.75 12.2 25.2 12.2" fill="#ffffff" fill-rule="evenodd" stroke="none"/>
    <path d="M25.25 12.2 L25.25 37.5 -0.75 37.5 -0.75 12.2 25.25 12.2 M-0.7 37.45 L25.2 37.45 25.2 12.25 -0.7 12.25 -0.7 37.45" fill="#ffffff" fill-rule="evenodd" stroke="none"/>
    <path d="M24.35 13.1 L24.35 36.65 0.1 36.65 0.1 13.1 24.35 13.1" fill="#008061" fill-rule="evenodd" stroke="none"/>
    <path d="M21.15 14.45 L21.6 14.6 21.95 14.95 22.1 15.45 20.25 34.05 20.15 34.6 19.9 34.95 19.5 35.05 15.45 35.1 15.45 36.0 9.25 36.0 9.25 35.05 5.0 35.05 4.65 34.95 4.35 34.6 4.25 34.05 2.4 15.45 Q2.4 15.15 2.55 14.95 L2.9 14.6 3.35 14.45 21.15 14.45" fill="#ffffff" fill-rule="evenodd" stroke="none"/>
    <path d="M17.5 16.7 L16.75 17.05 15.7 17.7 14.6 18.5 13.45 19.4 12.5 20.3 11.9 21.2 5.6 21.2 5.6 16.7 17.5 16.7" fill="#f5821f" fill-rule="evenodd" stroke="none"/>
    <path d="M15.1 29.85 Q14.95 31.1 14.95 32.5 L14.9 35.5 9.75 35.5 9.8 32.5 10.0 29.85 15.1 29.85" fill="#ed1b2d" fill-rule="evenodd" stroke="none"/>
    <path d="M19.15 16.5 L19.15 21.45 17.85 22.1 16.75 23.15 15.95 24.3 Q15.6 24.9 15.55 25.4 L10.75 25.35 Q11.1 23.55 12.15 21.95 13.25 20.3 15.0 18.95 16.8 17.55 19.15 16.5" fill="#ed1b2d" fill-rule="evenodd" stroke="none"/>
    <path d="M16.1 30.2 L16.55 30.35 16.7 30.8 16.55 31.2 Q16.35 31.4 16.1 31.4 15.85 31.4 15.7 31.2 L15.5 30.8 15.7 30.35 Q15.85 30.2 16.1 30.2 M16.45 30.45 Q16.3 30.3 16.1 30.3 15.9 30.3 15.75 30.45 L15.6 30.8 15.75 31.15 16.1 31.3 16.45 31.15 16.6 30.8 16.45 30.45 M16.35 30.65 L16.35 30.8 16.2 30.85 16.4 31.15 16.3 31.15 16.1 30.85 16.0 30.85 16.0 31.15 15.85 31.15 15.85 30.45 16.15 30.45 16.35 30.65 M16.1 30.75 L16.2 30.75 16.25 30.65 16.2 30.55 16.1 30.55 16.0 30.55 16.0 30.75 16.1 30.75" fill="#008061" fill-rule="evenodd" stroke="none"/>
    <path d="M7.0 25.9 L7.0 26.65 6.15 26.65 6.15 27.3 7.0 27.3 7.0 27.9 6.15 27.9 6.15 28.55 7.0 28.55 7.0 29.25 5.1 29.25 5.1 25.9 7.0 25.9" fill="#008061" fill-rule="evenodd" stroke="none"/>
    <path d="M11.5 25.9 L11.5 26.65 10.65 26.65 10.65 27.3 11.5 27.3 11.5 27.9 10.65 27.9 10.65 28.55 11.5 28.55 11.5 29.25 9.6 29.25 9.6 25.9 11.5 25.9" fill="#008061" fill-rule="evenodd" stroke="none"/>
    <path d="M8.45 25.9 L8.45 28.55 9.3 28.55 9.3 29.25 7.4 29.25 7.4 25.9 8.45 25.9" fill="#008061" fill-rule="evenodd" stroke="none"/>
    <path d="M14.25 25.9 L13.65 29.25 12.25 29.25 11.75 25.9 12.7 25.9 13.1 28.15 13.5 25.9 14.25 25.9" fill="#008061" fill-rule="evenodd" stroke="none"/>
    <path d="M17.8 25.9 L17.8 29.25 16.8 29.25 16.8 25.9 17.8 25.9" fill="#008061" fill-rule="evenodd" stroke="none"/>
    <path d="M19.2 25.95 L19.4 26.4 19.4 29.25 18.4 29.25 18.4 26.85 18.3 26.7 18.1 26.65 17.9 26.7 17.8 26.9 17.8 26.1 18.25 25.85 18.65 25.8 19.2 25.95" fill="#008061" fill-rule="evenodd" stroke="none"/>
    <path d="M16.5 25.9 L16.5 26.65 15.65 26.65 15.65 27.3 16.5 27.3 16.5 27.9 15.65 27.9 15.65 28.55 16.5 28.55 16.5 29.25 14.6 29.25 14.6 25.9 16.5 25.9" fill="#008061" fill-rule="evenodd" stroke="none"/>
  </g>
</svg>
