<?xml version="1.0" encoding="UTF-8" standalone="no"?>
<svg xmlns:ffdec="https://www.free-decompiler.com/flash" xmlns:xlink="http://www.w3.org/1999/xlink" ffdec:objectType="shape" height="192.0px" width="145.85px" xmlns="http://www.w3.org/2000/svg">
  <g transform="matrix(1.0, 0.0, 0.0, 1.0, 0.0, 0.0)">
    <path d="M120.3 11.8 Q129.8 22.05 135.1 30.25 136.15 32.0 140.75 44.65 145.85 58.6 145.85 61.75 145.85 64.1 139.4 78.7 132.9 93.45 132.85 95.5 132.5 110.3 127.35 128.5 123.05 143.95 121.1 160.3 L118.75 179.7 Q117.15 186.85 112.2 189.35 106.95 192.0 93.35 192.0 69.55 192.0 60.1 183.0 57.3 180.3 56.0 177.2 49.2 182.0 32.35 182.0 10.35 182.0 3.05 134.05 0.7 118.75 0.15 99.8 0.0 95.5 0.0 81.5 0.0 79.3 1.8 73.5 4.0 66.6 7.25 60.5 16.4 43.4 28.35 43.0 L28.85 43.0 29.0 43.0 30.1 43.1 Q40.2 44.0 50.3 60.05 53.6 65.3 56.15 71.0 L56.35 70.05 Q57.85 62.9 57.85 51.75 57.85 36.35 69.35 23.25 72.65 19.5 87.75 9.75 102.85 0.0 105.35 0.0 109.35 0.0 120.3 11.8" fill="#fe4e4e" fill-rule="evenodd" stroke="none"/>
  </g>
</svg>
