<?xml version="1.0" encoding="UTF-8" standalone="no"?>
<svg xmlns:ffdec="https://www.free-decompiler.com/flash" xmlns:xlink="http://www.w3.org/1999/xlink" ffdec:objectType="shape" height="39.0px" width="10.1px" xmlns="http://www.w3.org/2000/svg">
  <g transform="matrix(1.0, 0.0, 0.0, 1.0, 0.0, 0.0)">
    <path d="M10.1 3.0 L9.0 3.0 9.0 2.0 10.1 2.0 10.1 3.0" fill="#ffda39" fill-rule="evenodd" stroke="none"/>
    <path d="M10.1 2.0 L9.0 2.0 7.0 2.0 7.0 1.0 10.1 1.0 10.1 2.0" fill="#ffe356" fill-rule="evenodd" stroke="none"/>
    <path d="M2.0 1.0 L2.0 0.0 10.1 0.0 10.1 1.0 7.0 1.0 6.0 1.0 5.0 1.0 4.0 1.0 2.0 1.0 2.0 2.0 1.0 2.0 1.0 4.0 1.0 5.0 1.0 6.0 1.0 7.0 1.0 8.0 1.0 9.0 1.0 10.0 1.0 12.0 1.0 15.0 1.0 17.0 1.0 19.0 1.0 20.0 1.0 23.0 1.0 25.0 1.0 26.0 1.0 29.0 1.0 31.0 1.0 33.0 1.0 34.0 1.0 35.0 1.0 36.0 1.0 37.0 2.0 37.0 2.0 38.0 3.0 38.0 4.0 38.0 5.0 38.0 6.0 38.0 7.0 38.0 8.0 38.0 10.1 38.0 10.1 39.0 2.0 39.0 2.0 38.0 1.0 38.0 1.0 37.0 0.0 37.0 0.0 2.0 1.0 2.0 1.0 1.0 2.0 1.0" fill="#333333" fill-rule="evenodd" stroke="none"/>
    <path d="M9.0 2.0 L9.0 3.0 7.0 3.0 7.0 2.0 9.0 2.0" fill="#ffda3a" fill-rule="evenodd" stroke="none"/>
    <path d="M9.0 3.0 L10.1 3.0 10.1 4.0 7.0 4.0 7.0 3.0 9.0 3.0" fill="#ffd323" fill-rule="evenodd" stroke="none"/>
    <path d="M6.0 3.0 L6.0 2.0 7.0 2.0 7.0 3.0 6.0 3.0" fill="#ffdc3c" fill-rule="evenodd" stroke="none"/>
    <path d="M6.0 2.0 L6.0 3.0 5.0 3.0 5.0 2.0 6.0 2.0 M2.0 6.0 L2.0 5.0 3.0 5.0 3.0 6.0 2.0 6.0" fill="#ffdc44" fill-rule="evenodd" stroke="none"/>
    <path d="M7.0 3.0 L7.0 4.0 6.0 4.0 6.0 3.0 7.0 3.0 M5.0 4.0 L5.0 5.0 4.0 5.0 4.0 4.0 5.0 4.0" fill="#ffd327" fill-rule="evenodd" stroke="none"/>
    <path d="M6.0 1.0 L7.0 1.0 7.0 2.0 6.0 2.0 6.0 1.0" fill="#ffe459" fill-rule="evenodd" stroke="none"/>
    <path d="M5.0 1.0 L6.0 1.0 6.0 2.0 5.0 2.0 5.0 1.0 M2.0 6.0 L1.0 6.0 1.0 5.0 2.0 5.0 2.0 6.0" fill="#ffe561" fill-rule="evenodd" stroke="none"/>
    <path d="M6.0 6.0 L6.0 5.0 7.0 5.0 7.0 6.0 6.0 6.0" fill="#ffc80a" fill-rule="evenodd" stroke="none"/>
    <path d="M6.0 6.0 L7.0 6.0 10.1 6.0 10.1 7.0 6.0 7.0 6.0 6.0" fill="#ffc404" fill-rule="evenodd" stroke="none"/>
    <path d="M7.0 4.0 L10.1 4.0 10.1 5.0 7.0 5.0 6.0 5.0 6.0 4.0 7.0 4.0" fill="#ffcc13" fill-rule="evenodd" stroke="none"/>
    <path d="M6.0 5.0 L5.0 5.0 5.0 6.0 4.0 6.0 4.0 5.0 5.0 5.0 5.0 4.0 6.0 4.0 6.0 5.0" fill="#ffce1c" fill-rule="evenodd" stroke="none"/>
    <path d="M7.0 6.0 L7.0 5.0 10.1 5.0 10.1 6.0 7.0 6.0" fill="#ffc707" fill-rule="evenodd" stroke="none"/>
    <path d="M6.0 5.0 L6.0 6.0 5.0 6.0 5.0 5.0 6.0 5.0" fill="#ffca10" fill-rule="evenodd" stroke="none"/>
    <path d="M5.0 3.0 L6.0 3.0 6.0 4.0 5.0 4.0 5.0 3.0 M4.0 5.0 L4.0 6.0 3.0 6.0 3.0 5.0 4.0 5.0" fill="#ffd42d" fill-rule="evenodd" stroke="none"/>
    <path d="M4.0 1.0 L5.0 1.0 5.0 2.0 4.0 2.0 4.0 1.0" fill="#ffe86a" fill-rule="evenodd" stroke="none"/>
    <path d="M3.0 2.0 L4.0 2.0 4.0 3.0 3.0 3.0 3.0 2.0 M2.0 4.0 L2.0 3.0 3.0 3.0 3.0 4.0 2.0 4.0" fill="#ffe45e" fill-rule="evenodd" stroke="none"/>
    <path d="M2.0 2.0 L3.0 2.0 3.0 3.0 2.0 3.0 2.0 2.0" fill="#ffea72" fill-rule="evenodd" stroke="none"/>
    <path d="M5.0 2.0 L5.0 3.0 4.0 3.0 4.0 2.0 5.0 2.0" fill="#ffe04e" fill-rule="evenodd" stroke="none"/>
    <path d="M4.0 3.0 L5.0 3.0 5.0 4.0 4.0 4.0 4.0 3.0" fill="#ffd837" fill-rule="evenodd" stroke="none"/>
    <path d="M2.0 1.0 L4.0 1.0 4.0 2.0 3.0 2.0 2.0 2.0 2.0 1.0 M1.0 4.0 L1.0 2.0 2.0 2.0 2.0 3.0 2.0 4.0 1.0 4.0" fill="#ffec7a" fill-rule="evenodd" stroke="none"/>
    <path d="M3.0 3.0 L4.0 3.0 4.0 4.0 3.0 4.0 3.0 3.0" fill="#ffde49" fill-rule="evenodd" stroke="none"/>
    <path d="M1.0 4.0 L2.0 4.0 2.0 5.0 1.0 5.0 1.0 4.0" fill="#ffe76b" fill-rule="evenodd" stroke="none"/>
    <path d="M1.0 6.0 L2.0 6.0 2.0 7.0 1.0 7.0 1.0 6.0" fill="#ffe05c" fill-rule="evenodd" stroke="none"/>
    <path d="M3.0 5.0 L2.0 5.0 2.0 4.0 3.0 4.0 3.0 5.0" fill="#ffde4f" fill-rule="evenodd" stroke="none"/>
    <path d="M4.0 6.0 L5.0 6.0 5.0 7.0 5.0 8.0 4.0 8.0 4.0 7.0 4.0 6.0" fill="#ffc916" fill-rule="evenodd" stroke="none"/>
    <path d="M3.0 5.0 L3.0 4.0 4.0 4.0 4.0 5.0 3.0 5.0" fill="#ffd838" fill-rule="evenodd" stroke="none"/>
    <path d="M3.0 6.0 L4.0 6.0 4.0 7.0 3.0 7.0 3.0 6.0" fill="#ffcf28" fill-rule="evenodd" stroke="none"/>
    <path d="M2.0 7.0 L2.0 6.0 3.0 6.0 3.0 7.0 3.0 8.0 2.0 8.0 2.0 7.0" fill="#ffd63f" fill-rule="evenodd" stroke="none"/>
    <path d="M4.0 8.0 L5.0 8.0 5.0 9.0 4.0 9.0 4.0 8.0" fill="#ffc617" fill-rule="evenodd" stroke="none"/>
    <path d="M4.0 8.0 L4.0 9.0 4.0 10.0 3.0 10.0 3.0 8.0 4.0 8.0" fill="#ffca28" fill-rule="evenodd" stroke="none"/>
    <path d="M4.0 9.0 L5.0 9.0 5.0 11.0 4.0 11.0 4.0 10.0 4.0 9.0" fill="#ffc319" fill-rule="evenodd" stroke="none"/>
    <path d="M5.0 9.0 L5.0 8.0 6.0 8.0 6.0 9.0 5.0 9.0" fill="#ffc20b" fill-rule="evenodd" stroke="none"/>
    <path d="M5.0 7.0 L6.0 7.0 6.0 8.0 5.0 8.0 5.0 7.0" fill="#ffc40a" fill-rule="evenodd" stroke="none"/>
    <path d="M4.0 7.0 L4.0 8.0 3.0 8.0 3.0 7.0 4.0 7.0" fill="#ffcd27" fill-rule="evenodd" stroke="none"/>
    <path d="M1.0 9.0 L1.0 8.0 2.0 8.0 2.0 9.0 1.0 9.0" fill="#ffdc5c" fill-rule="evenodd" stroke="none"/>
    <path d="M3.0 8.0 L3.0 10.0 2.0 10.0 2.0 9.0 2.0 8.0 3.0 8.0" fill="#ffd23f" fill-rule="evenodd" stroke="none"/>
    <path d="M1.0 7.0 L2.0 7.0 2.0 8.0 1.0 8.0 1.0 7.0" fill="#ffdd5a" fill-rule="evenodd" stroke="none"/>
    <path d="M1.0 9.0 L2.0 9.0 2.0 10.0 1.0 10.0 1.0 9.0" fill="#ffdb5b" fill-rule="evenodd" stroke="none"/>
    <path d="M1.0 10.0 L2.0 10.0 2.0 11.0 2.0 12.0 1.0 12.0 1.0 10.0" fill="#ffd95c" fill-rule="evenodd" stroke="none"/>
    <path d="M2.0 12.0 L2.0 11.0 3.0 11.0 3.0 12.0 3.0 13.0 2.0 13.0 2.0 12.0" fill="#ffcd42" fill-rule="evenodd" stroke="none"/>
    <path d="M2.0 11.0 L2.0 10.0 3.0 10.0 3.0 11.0 2.0 11.0" fill="#ffd040" fill-rule="evenodd" stroke="none"/>
    <path d="M1.0 12.0 L2.0 12.0 2.0 13.0 2.0 14.0 2.0 15.0 1.0 15.0 1.0 12.0" fill="#ffd65e" fill-rule="evenodd" stroke="none"/>
    <path d="M3.0 10.0 L4.0 10.0 4.0 11.0 4.0 12.0 3.0 12.0 3.0 11.0 3.0 10.0" fill="#ffc72a" fill-rule="evenodd" stroke="none"/>
    <path d="M4.0 12.0 L4.0 11.0 5.0 11.0 5.0 12.0 5.0 13.0 4.0 13.0 4.0 12.0" fill="#ffbe1b" fill-rule="evenodd" stroke="none"/>
    <path d="M3.0 12.0 L4.0 12.0 4.0 13.0 3.0 13.0 3.0 12.0" fill="#ffc42c" fill-rule="evenodd" stroke="none"/>
    <path d="M5.0 12.0 L5.0 11.0 6.0 11.0 6.0 12.0 5.0 12.0" fill="#ffbb0f" fill-rule="evenodd" stroke="none"/>
    <path d="M5.0 11.0 L5.0 9.0 6.0 9.0 6.0 10.0 6.0 11.0 5.0 11.0" fill="#ffbe0d" fill-rule="evenodd" stroke="none"/>
    <path d="M10.1 8.0 L10.1 9.0 7.0 9.0 6.0 9.0 6.0 8.0 10.1 8.0" fill="#ffbf06" fill-rule="evenodd" stroke="none"/>
    <path d="M10.1 7.0 L10.1 8.0 6.0 8.0 6.0 7.0 10.1 7.0" fill="#ffc204" fill-rule="evenodd" stroke="none"/>
    <path d="M6.0 9.0 L7.0 9.0 7.0 10.0 6.0 10.0 6.0 9.0" fill="#ffbe08" fill-rule="evenodd" stroke="none"/>
    <path d="M10.1 10.0 L10.1 11.0 7.0 11.0 6.0 11.0 6.0 10.0 7.0 10.0 10.1 10.0" fill="#ffbb08" fill-rule="evenodd" stroke="none"/>
    <path d="M6.0 12.0 L6.0 11.0 7.0 11.0 7.0 12.0 6.0 12.0" fill="#ffb80a" fill-rule="evenodd" stroke="none"/>
    <path d="M10.1 12.0 L10.1 13.0 6.0 13.0 6.0 12.0 7.0 12.0 10.1 12.0" fill="#ffb60a" fill-rule="evenodd" stroke="none"/>
    <path d="M10.1 11.0 L10.1 12.0 7.0 12.0 7.0 11.0 10.1 11.0" fill="#ffb809" fill-rule="evenodd" stroke="none"/>
    <path d="M10.1 9.0 L10.1 10.0 7.0 10.0 7.0 9.0 10.1 9.0" fill="#ffbd07" fill-rule="evenodd" stroke="none"/>
    <path d="M5.0 6.0 L6.0 6.0 6.0 7.0 5.0 7.0 5.0 6.0" fill="#ffc60b" fill-rule="evenodd" stroke="none"/>
    <path d="M5.0 12.0 L6.0 12.0 6.0 13.0 5.0 13.0 5.0 12.0" fill="#ffb810" fill-rule="evenodd" stroke="none"/>
    <path d="M10.1 13.0 L10.1 14.0 6.0 14.0 6.0 13.0 10.1 13.0" fill="#ffb30c" fill-rule="evenodd" stroke="none"/>
    <path d="M10.1 14.0 L10.1 15.0 7.0 15.0 6.0 15.0 6.0 14.0 10.1 14.0" fill="#ffb00d" fill-rule="evenodd" stroke="none"/>
    <path d="M6.0 13.0 L6.0 14.0 5.0 14.0 5.0 13.0 6.0 13.0" fill="#ffb611" fill-rule="evenodd" stroke="none"/>
    <path d="M6.0 15.0 L7.0 15.0 7.0 16.0 6.0 16.0 6.0 15.0" fill="#ffad0e" fill-rule="evenodd" stroke="none"/>
    <path d="M5.0 14.0 L6.0 14.0 6.0 15.0 5.0 15.0 5.0 14.0" fill="#ffb213" fill-rule="evenodd" stroke="none"/>
    <path d="M10.1 16.0 L10.1 17.0 7.0 17.0 6.0 17.0 6.0 16.0 7.0 16.0 10.1 16.0" fill="#ffab10" fill-rule="evenodd" stroke="none"/>
    <path d="M6.0 17.0 L7.0 17.0 7.0 18.0 6.0 18.0 6.0 17.0" fill="#ffa911" fill-rule="evenodd" stroke="none"/>
    <path d="M10.1 18.0 L10.1 19.0 6.0 19.0 6.0 18.0 7.0 18.0 10.1 18.0" fill="#ffa513" fill-rule="evenodd" stroke="none"/>
    <path d="M6.0 17.0 L6.0 18.0 5.0 18.0 5.0 17.0 6.0 17.0" fill="#ffaa17" fill-rule="evenodd" stroke="none"/>
    <path d="M10.1 17.0 L10.1 18.0 7.0 18.0 7.0 17.0 10.1 17.0" fill="#ffa811" fill-rule="evenodd" stroke="none"/>
    <path d="M6.0 15.0 L6.0 16.0 6.0 17.0 5.0 17.0 5.0 16.0 5.0 15.0 6.0 15.0" fill="#ffae15" fill-rule="evenodd" stroke="none"/>
    <path d="M10.1 15.0 L10.1 16.0 7.0 16.0 7.0 15.0 10.1 15.0" fill="#ffae0e" fill-rule="evenodd" stroke="none"/>
    <path d="M5.0 13.0 L5.0 14.0 4.0 14.0 4.0 13.0 5.0 13.0" fill="#ffba1d" fill-rule="evenodd" stroke="none"/>
    <path d="M3.0 15.0 L3.0 14.0 4.0 14.0 4.0 16.0 3.0 16.0 3.0 15.0" fill="#ffbe2e" fill-rule="evenodd" stroke="none"/>
    <path d="M2.0 15.0 L2.0 14.0 3.0 14.0 3.0 15.0 2.0 15.0" fill="#ffc844" fill-rule="evenodd" stroke="none"/>
    <path d="M4.0 16.0 L4.0 14.0 5.0 14.0 5.0 15.0 5.0 16.0 4.0 16.0" fill="#ffb61e" fill-rule="evenodd" stroke="none"/>
    <path d="M4.0 14.0 L3.0 14.0 3.0 13.0 4.0 13.0 4.0 14.0" fill="#ffc22d" fill-rule="evenodd" stroke="none"/>
    <path d="M2.0 14.0 L2.0 13.0 3.0 13.0 3.0 14.0 2.0 14.0" fill="#ffca43" fill-rule="evenodd" stroke="none"/>
    <path d="M1.0 15.0 L2.0 15.0 2.0 17.0 1.0 17.0 1.0 15.0" fill="#ffd261" fill-rule="evenodd" stroke="none"/>
    <path d="M1.0 17.0 L2.0 17.0 2.0 19.0 1.0 19.0 1.0 17.0" fill="#ffcf63" fill-rule="evenodd" stroke="none"/>
    <path d="M5.0 17.0 L5.0 18.0 4.0 18.0 4.0 16.0 5.0 16.0 5.0 17.0" fill="#ffb221" fill-rule="evenodd" stroke="none"/>
    <path d="M3.0 16.0 L4.0 16.0 4.0 18.0 3.0 18.0 3.0 17.0 3.0 16.0" fill="#ffb931" fill-rule="evenodd" stroke="none"/>
    <path d="M3.0 15.0 L3.0 16.0 3.0 17.0 2.0 17.0 2.0 15.0 3.0 15.0" fill="#ffc546" fill-rule="evenodd" stroke="none"/>
    <path d="M4.0 18.0 L5.0 18.0 5.0 19.0 4.0 19.0 4.0 18.0" fill="#ffae23" fill-rule="evenodd" stroke="none"/>
    <path d="M3.0 18.0 L4.0 18.0 4.0 19.0 4.0 20.0 3.0 20.0 3.0 19.0 3.0 18.0" fill="#ffb334" fill-rule="evenodd" stroke="none"/>
    <path d="M3.0 17.0 L3.0 18.0 3.0 19.0 2.0 19.0 2.0 17.0 3.0 17.0" fill="#ffc248" fill-rule="evenodd" stroke="none"/>
    <path d="M2.0 19.0 L3.0 19.0 3.0 20.0 3.0 21.0 2.0 21.0 2.0 20.0 2.0 19.0" fill="#ffbe4a" fill-rule="evenodd" stroke="none"/>
    <path d="M3.0 21.0 L3.0 20.0 4.0 20.0 4.0 21.0 4.0 22.0 3.0 22.0 3.0 21.0" fill="#ffaf36" fill-rule="evenodd" stroke="none"/>
    <path d="M5.0 18.0 L6.0 18.0 6.0 19.0 6.0 20.0 6.0 21.0 5.0 21.0 5.0 19.0 5.0 18.0" fill="#ffa51a" fill-rule="evenodd" stroke="none"/>
    <path d="M5.0 19.0 L5.0 21.0 4.0 21.0 4.0 20.0 4.0 19.0 5.0 19.0" fill="#ffa926" fill-rule="evenodd" stroke="none"/>
    <path d="M4.0 21.0 L5.0 21.0 5.0 22.0 4.0 22.0 4.0 21.0" fill="#ffa628" fill-rule="evenodd" stroke="none"/>
    <path d="M1.0 19.0 L2.0 19.0 2.0 20.0 1.0 20.0 1.0 19.0" fill="#ffcd64" fill-rule="evenodd" stroke="none"/>
    <path d="M2.0 20.0 L2.0 21.0 2.0 22.0 2.0 23.0 1.0 23.0 1.0 20.0 2.0 20.0" fill="#ffca66" fill-rule="evenodd" stroke="none"/>
    <path d="M2.0 23.0 L2.0 22.0 3.0 22.0 3.0 23.0 2.0 23.0" fill="#ffb84d" fill-rule="evenodd" stroke="none"/>
    <path d="M1.0 23.0 L2.0 23.0 2.0 25.0 1.0 25.0 1.0 23.0" fill="#ffc669" fill-rule="evenodd" stroke="none"/>
    <path d="M5.0 22.0 L5.0 23.0 4.0 23.0 4.0 22.0 5.0 22.0" fill="#ffa328" fill-rule="evenodd" stroke="none"/>
    <path d="M4.0 22.0 L4.0 23.0 4.0 24.0 3.0 24.0 3.0 23.0 3.0 22.0 4.0 22.0" fill="#ffab39" fill-rule="evenodd" stroke="none"/>
    <path d="M5.0 21.0 L6.0 21.0 6.0 22.0 6.0 23.0 5.0 23.0 5.0 22.0 5.0 21.0" fill="#ff9e1d" fill-rule="evenodd" stroke="none"/>
    <path d="M4.0 23.0 L5.0 23.0 5.0 24.0 5.0 25.0 4.0 25.0 4.0 24.0 4.0 23.0" fill="#ff9f2a" fill-rule="evenodd" stroke="none"/>
    <path d="M4.0 24.0 L4.0 25.0 4.0 26.0 3.0 26.0 3.0 25.0 3.0 24.0 4.0 24.0" fill="#ffa63b" fill-rule="evenodd" stroke="none"/>
    <path d="M3.0 24.0 L3.0 25.0 2.0 25.0 2.0 23.0 3.0 23.0 3.0 24.0" fill="#ffb54f" fill-rule="evenodd" stroke="none"/>
    <path d="M5.0 23.0 L6.0 23.0 6.0 24.0 5.0 24.0 5.0 23.0" fill="#ff9a1f" fill-rule="evenodd" stroke="none"/>
    <path d="M2.0 21.0 L3.0 21.0 3.0 22.0 2.0 22.0 2.0 21.0" fill="#ffbb4c" fill-rule="evenodd" stroke="none"/>
    <path d="M10.1 20.0 L10.1 21.0 7.0 21.0 6.0 21.0 6.0 20.0 10.1 20.0" fill="#ff9f16" fill-rule="evenodd" stroke="none"/>
    <path d="M10.1 19.0 L10.1 20.0 6.0 20.0 6.0 19.0 10.1 19.0" fill="#ffa215" fill-rule="evenodd" stroke="none"/>
    <path d="M6.0 22.0 L6.0 21.0 7.0 21.0 7.0 22.0 6.0 22.0" fill="#ff9c18" fill-rule="evenodd" stroke="none"/>
    <path d="M10.1 22.0 L10.1 23.0 6.0 23.0 6.0 22.0 7.0 22.0 10.1 22.0" fill="#ff9919" fill-rule="evenodd" stroke="none"/>
    <path d="M10.1 23.0 L10.1 24.0 6.0 24.0 6.0 23.0 10.1 23.0" fill="#ff961a" fill-rule="evenodd" stroke="none"/>
    <path d="M10.1 21.0 L10.1 22.0 7.0 22.0 7.0 21.0 10.1 21.0" fill="#ff9c17" fill-rule="evenodd" stroke="none"/>
    <path d="M10.1 24.0 L10.1 25.0 6.0 25.0 6.0 24.0 10.1 24.0" fill="#ff931b" fill-rule="evenodd" stroke="none"/>
    <path d="M5.0 24.0 L6.0 24.0 6.0 25.0 6.0 26.0 5.0 26.0 5.0 25.0 5.0 24.0" fill="#ff9621" fill-rule="evenodd" stroke="none"/>
    <path d="M10.1 26.0 L10.1 27.0 10.0 27.0 10.0 26.0 10.1 26.0" fill="#ff8e1e" fill-rule="evenodd" stroke="none"/>
    <path d="M10.0 26.0 L10.0 27.0 6.0 27.0 6.0 26.0 10.0 26.0" fill="#ff8e1f" fill-rule="evenodd" stroke="none"/>
    <path d="M10.1 25.0 L10.1 26.0 10.0 26.0 6.0 26.0 6.0 25.0 10.1 25.0" fill="#ff911d" fill-rule="evenodd" stroke="none"/>
    <path d="M10.1 27.0 L10.1 28.0 6.0 28.0 6.0 27.0 10.0 27.0 10.1 27.0" fill="#ff8b1f" fill-rule="evenodd" stroke="none"/>
    <path d="M6.0 26.0 L6.0 27.0 5.0 27.0 5.0 26.0 6.0 26.0" fill="#ff9224" fill-rule="evenodd" stroke="none"/>
    <path d="M10.1 29.0 L10.1 30.0 6.0 30.0 6.0 29.0 10.1 29.0" fill="#ff8622" fill-rule="evenodd" stroke="none"/>
    <path d="M6.0 29.0 L6.0 30.0 5.0 30.0 5.0 29.0 6.0 29.0" fill="#ff8927" fill-rule="evenodd" stroke="none"/>
    <path d="M10.1 28.0 L10.1 29.0 6.0 29.0 6.0 28.0 10.1 28.0" fill="#ff8821" fill-rule="evenodd" stroke="none"/>
    <path d="M5.0 27.0 L6.0 27.0 6.0 28.0 6.0 29.0 5.0 29.0 5.0 27.0" fill="#ff8d26" fill-rule="evenodd" stroke="none"/>
    <path d="M10.1 30.0 L10.1 31.0 6.0 31.0 6.0 30.0 10.1 30.0" fill="#ff8423" fill-rule="evenodd" stroke="none"/>
    <path d="M4.0 25.0 L5.0 25.0 5.0 26.0 5.0 27.0 4.0 27.0 4.0 26.0 4.0 25.0" fill="#ff9a2d" fill-rule="evenodd" stroke="none"/>
    <path d="M3.0 25.0 L3.0 26.0 3.0 27.0 2.0 27.0 2.0 26.0 2.0 25.0 3.0 25.0" fill="#ffb151" fill-rule="evenodd" stroke="none"/>
    <path d="M4.0 27.0 L5.0 27.0 5.0 29.0 4.0 29.0 4.0 28.0 4.0 27.0" fill="#ff9530" fill-rule="evenodd" stroke="none"/>
    <path d="M3.0 26.0 L4.0 26.0 4.0 27.0 4.0 28.0 3.0 28.0 3.0 27.0 3.0 26.0" fill="#ffa13d" fill-rule="evenodd" stroke="none"/>
    <path d="M2.0 25.0 L2.0 26.0 1.0 26.0 1.0 25.0 2.0 25.0" fill="#ffc269" fill-rule="evenodd" stroke="none"/>
    <path d="M2.0 26.0 L2.0 27.0 2.0 29.0 1.0 29.0 1.0 26.0 2.0 26.0" fill="#ffc06c" fill-rule="evenodd" stroke="none"/>
    <path d="M1.0 29.0 L2.0 29.0 2.0 31.0 1.0 31.0 1.0 29.0" fill="#ffbd6e" fill-rule="evenodd" stroke="none"/>
    <path d="M4.0 29.0 L5.0 29.0 5.0 30.0 4.0 30.0 4.0 29.0" fill="#ff9232" fill-rule="evenodd" stroke="none"/>
    <path d="M3.0 28.0 L4.0 28.0 4.0 29.0 3.0 29.0 3.0 28.0" fill="#ff9e3f" fill-rule="evenodd" stroke="none"/>
    <path d="M3.0 27.0 L3.0 28.0 3.0 29.0 2.0 29.0 2.0 27.0 3.0 27.0" fill="#ffae52" fill-rule="evenodd" stroke="none"/>
    <path d="M4.0 30.0 L5.0 30.0 5.0 31.0 5.0 33.0 4.0 33.0 4.0 32.0 4.0 30.0" fill="#ff8d34" fill-rule="evenodd" stroke="none"/>
    <path d="M4.0 29.0 L4.0 30.0 3.0 30.0 3.0 29.0 4.0 29.0" fill="#ff9d40" fill-rule="evenodd" stroke="none"/>
    <path d="M3.0 29.0 L3.0 30.0 3.0 32.0 2.0 32.0 2.0 31.0 2.0 29.0 3.0 29.0" fill="#ffa955" fill-rule="evenodd" stroke="none"/>
    <path d="M3.0 30.0 L4.0 30.0 4.0 32.0 3.0 32.0 3.0 30.0" fill="#ff9a42" fill-rule="evenodd" stroke="none"/>
    <path d="M3.0 34.0 L3.0 33.0 4.0 33.0 4.0 34.0 3.0 34.0" fill="#ff9b4c" fill-rule="evenodd" stroke="none"/>
    <path d="M2.0 32.0 L3.0 32.0 3.0 33.0 3.0 34.0 2.0 34.0 2.0 33.0 2.0 32.0" fill="#ffa95c" fill-rule="evenodd" stroke="none"/>
    <path d="M4.0 33.0 L5.0 33.0 5.0 34.0 4.0 34.0 4.0 33.0 M5.0 35.0 L5.0 34.0 6.0 34.0 6.0 35.0 5.0 35.0" fill="#ff8e3d" fill-rule="evenodd" stroke="none"/>
    <path d="M4.0 34.0 L5.0 34.0 5.0 35.0 4.0 35.0 4.0 34.0" fill="#ff9548" fill-rule="evenodd" stroke="none"/>
    <path d="M5.0 34.0 L5.0 33.0 6.0 33.0 6.0 34.0 5.0 34.0" fill="#ff8632" fill-rule="evenodd" stroke="none"/>
    <path d="M5.0 31.0 L6.0 31.0 6.0 32.0 6.0 33.0 5.0 33.0 5.0 31.0" fill="#ff842c" fill-rule="evenodd" stroke="none"/>
    <path d="M4.0 32.0 L4.0 33.0 3.0 33.0 3.0 32.0 4.0 32.0" fill="#ff9845" fill-rule="evenodd" stroke="none"/>
    <path d="M3.0 34.0 L4.0 34.0 4.0 35.0 3.0 35.0 3.0 34.0" fill="#ffa156" fill-rule="evenodd" stroke="none"/>
    <path d="M2.0 31.0 L2.0 32.0 2.0 33.0 1.0 33.0 1.0 31.0 2.0 31.0" fill="#ffbb71" fill-rule="evenodd" stroke="none"/>
    <path d="M1.0 34.0 L1.0 33.0 2.0 33.0 2.0 34.0 1.0 34.0 M6.0 37.0 L6.0 38.0 5.0 38.0 5.0 37.0 6.0 37.0" fill="#ffbc78" fill-rule="evenodd" stroke="none"/>
    <path d="M1.0 34.0 L2.0 34.0 2.0 35.0 1.0 35.0 1.0 34.0 M4.0 37.0 L5.0 37.0 5.0 38.0 4.0 38.0 4.0 37.0" fill="#ffc482" fill-rule="evenodd" stroke="none"/>
    <path d="M1.0 36.0 L2.0 36.0 3.0 36.0 3.0 37.0 3.0 38.0 2.0 38.0 2.0 37.0 1.0 37.0 1.0 36.0" fill="#ffc989" fill-rule="evenodd" stroke="none"/>
    <path d="M2.0 36.0 L2.0 35.0 3.0 35.0 3.0 36.0 4.0 36.0 4.0 37.0 3.0 37.0 3.0 36.0 2.0 36.0" fill="#ffba77" fill-rule="evenodd" stroke="none"/>
    <path d="M1.0 35.0 L2.0 35.0 2.0 36.0 1.0 36.0 1.0 35.0 M3.0 38.0 L3.0 37.0 4.0 37.0 4.0 38.0 3.0 38.0" fill="#ffce8f" fill-rule="evenodd" stroke="none"/>
    <path d="M4.0 36.0 L4.0 35.0 5.0 35.0 5.0 36.0 4.0 36.0" fill="#ff9f57" fill-rule="evenodd" stroke="none"/>
    <path d="M4.0 37.0 L4.0 36.0 5.0 36.0 5.0 37.0 4.0 37.0" fill="#ffaf6a" fill-rule="evenodd" stroke="none"/>
    <path d="M5.0 37.0 L5.0 36.0 6.0 36.0 6.0 37.0 5.0 37.0" fill="#ffa761" fill-rule="evenodd" stroke="none"/>
    <path d="M5.0 36.0 L5.0 35.0 6.0 35.0 6.0 36.0 5.0 36.0" fill="#ff974d" fill-rule="evenodd" stroke="none"/>
    <path d="M3.0 35.0 L4.0 35.0 4.0 36.0 3.0 36.0 3.0 35.0" fill="#ffab65" fill-rule="evenodd" stroke="none"/>
    <path d="M3.0 34.0 L3.0 35.0 2.0 35.0 2.0 34.0 3.0 34.0" fill="#ffb169" fill-rule="evenodd" stroke="none"/>
    <path d="M10.1 31.0 L10.1 32.0 8.0 32.0 6.0 32.0 6.0 31.0 10.1 31.0" fill="#ff8124" fill-rule="evenodd" stroke="none"/>
    <path d="M10.1 32.0 L10.1 33.0 8.0 33.0 8.0 32.0 10.1 32.0" fill="#ff7f26" fill-rule="evenodd" stroke="none"/>
    <path d="M10.1 33.0 L10.1 34.0 7.0 34.0 6.0 34.0 6.0 33.0 8.0 33.0 10.1 33.0" fill="#ff812b" fill-rule="evenodd" stroke="none"/>
    <path d="M6.0 32.0 L8.0 32.0 8.0 33.0 6.0 33.0 6.0 32.0" fill="#ff8026" fill-rule="evenodd" stroke="none"/>
    <path d="M6.0 35.0 L6.0 34.0 7.0 34.0 7.0 35.0 6.0 35.0" fill="#ff8838" fill-rule="evenodd" stroke="none"/>
    <path d="M7.0 37.0 L6.0 37.0 6.0 36.0 7.0 36.0 7.0 37.0" fill="#ffa25d" fill-rule="evenodd" stroke="none"/>
    <path d="M6.0 37.0 L7.0 37.0 7.0 38.0 6.0 38.0 6.0 37.0" fill="#ffb675" fill-rule="evenodd" stroke="none"/>
    <path d="M6.0 36.0 L6.0 35.0 7.0 35.0 7.0 36.0 6.0 36.0" fill="#ff9348" fill-rule="evenodd" stroke="none"/>
    <path d="M10.1 35.0 L10.1 36.0 8.0 36.0 7.0 36.0 7.0 35.0 10.1 35.0" fill="#ff9146" fill-rule="evenodd" stroke="none"/>
    <path d="M7.0 37.0 L7.0 36.0 8.0 36.0 8.0 37.0 7.0 37.0" fill="#ffa15b" fill-rule="evenodd" stroke="none"/>
    <path d="M10.1 36.0 L10.1 37.0 8.0 37.0 8.0 36.0 10.1 36.0" fill="#ffa059" fill-rule="evenodd" stroke="none"/>
    <path d="M10.1 37.0 L10.1 38.0 8.0 38.0 8.0 37.0 10.1 37.0" fill="#ffb472" fill-rule="evenodd" stroke="none"/>
    <path d="M10.1 34.0 L10.1 35.0 7.0 35.0 7.0 34.0 10.1 34.0" fill="#ff8636" fill-rule="evenodd" stroke="none"/>
    <path d="M7.0 38.0 L7.0 37.0 8.0 37.0 8.0 38.0 7.0 38.0" fill="#ffb573" fill-rule="evenodd" stroke="none"/>
    <path d="M5.0 30.0 L6.0 30.0 6.0 31.0 5.0 31.0 5.0 30.0" fill="#ff8629" fill-rule="evenodd" stroke="none"/>
  </g>
</svg>
