<?xml version="1.0" encoding="UTF-8" standalone="no"?>
<svg xmlns:ffdec="https://www.free-decompiler.com/flash" xmlns:xlink="http://www.w3.org/1999/xlink" ffdec:objectType="shape" height="26.15px" width="114.55px" xmlns="http://www.w3.org/2000/svg">
  <g transform="matrix(1.0, 0.0, 0.0, 1.0, 0.0, 0.0)">
    <path d="M110.3 23.95 L110.4 24.0 102.75 24.0 96.75 23.35 Q87.95 23.05 55.2 23.05 L15.35 23.4 Q14.0 23.55 13.75 24.0 L6.95 24.0 7.1 23.55 Q6.8 23.5 6.4 22.65 L5.9 21.65 Q5.9 21.55 7.25 20.45 L7.65 20.1 8.25 19.55 7.65 19.2 7.3 18.25 6.85 16.9 5.9 15.05 Q5.6 14.65 5.05 14.5 L4.15 13.55 3.65 12.05 2.55 9.9 Q1.85 9.05 0.0 9.0 L0.0 6.8 10.2 3.2 12.05 3.45 Q13.65 3.45 15.15 2.45 L17.2 1.7 Q18.6 0.95 18.6 0.4 L18.5 0.0 22.2 0.0 22.1 0.35 Q21.15 0.45 21.15 0.8 21.15 1.15 23.9 1.3 L34.4 2.95 Q35.05 3.05 38.3 4.3 L40.65 5.1 40.85 5.55 Q41.05 5.95 40.75 6.9 L41.15 7.35 41.1 7.5 41.6 10.6 41.8 12.15 42.45 12.9 42.6 13.1 42.75 13.45 42.75 13.7 42.5 15.7 42.15 16.95 42.55 17.4 42.5 17.55 42.8 17.85 47.15 18.1 51.85 18.1 51.95 18.05 57.05 18.15 58.05 18.1 61.0 18.15 62.8 18.1 76.55 18.35 77.9 18.2 87.2 18.3 93.35 18.6 105.55 19.15 106.25 19.15 112.85 19.85 114.0 20.45 114.55 20.75 114.05 22.35 Q113.85 23.2 112.2 23.4 110.5 23.55 110.3 23.95 M98.8 26.15 L15.7 26.15 15.7 24.2 98.8 24.2 98.8 26.15 M0.0 12.7 L0.1 13.5 0.0 13.5 0.0 12.7" fill="#fe4e4e" fill-rule="evenodd" stroke="none"/>
  </g>
</svg>
