<?xml version="1.0" encoding="UTF-8" standalone="no"?>
<svg xmlns:ffdec="https://www.free-decompiler.com/flash" xmlns:xlink="http://www.w3.org/1999/xlink" ffdec:objectType="shape" height="328.0px" width="747.0px" xmlns="http://www.w3.org/2000/svg">
  <g transform="matrix(1.0, 0.0, 0.0, 1.0, 373.5, 164.0)">
    <path d="M373.0 147.25 Q368.3 147.0 362.6 147.0 L317.25 150.5 308.15 148.75 Q300.8 147.0 299.05 147.0 288.15 147.0 281.9 148.5 L271.25 151.7 Q254.35 156.25 204.55 155.75 204.35 150.95 204.15 150.55 202.9 147.65 197.05 146.65 L180.8 143.25 Q179.5 142.95 168.5 142.95 158.05 142.95 151.15 146.35 L144.7 149.8 Q140.3 152.15 135.75 153.8 115.6 161.1 67.95 163.5 L-38.6 163.5 Q-71.55 161.85 -86.2 157.75 -92.35 156.05 -100.3 153.0 -107.9 150.85 -121.25 150.85 -128.1 150.85 -129.5 151.75 -130.3 152.3 -131.0 153.75 -135.05 156.6 -172.0 156.6 L-201.1 154.25 Q-223.65 151.9 -236.4 151.9 -254.1 151.9 -254.1 159.95 -254.1 161.75 -250.35 163.5 L-373.0 163.5 -373.0 -163.5 373.0 -163.5 373.0 147.25" fill="#3c5f7d" fill-rule="evenodd" stroke="none"/>
    <path d="M373.0 147.25 L373.0 -163.5 -373.0 -163.5 -373.0 163.5 -250.35 163.5 M-38.6 163.5 L67.95 163.5" fill="none" stroke="#000000" stroke-linecap="round" stroke-linejoin="round" stroke-width="1.0"/>
  </g>
</svg>
