<?xml version="1.0" encoding="UTF-8" standalone="no"?>
<svg xmlns:ffdec="https://www.free-decompiler.com/flash" xmlns:xlink="http://www.w3.org/1999/xlink" ffdec:objectType="shape" height="11.35px" width="122.15px" xmlns="http://www.w3.org/2000/svg">
  <g transform="matrix(1.0, 0.0, 0.0, 1.0, 53.15, -123.65)">
    <path d="M43.1 126.75 L66.0 126.5 Q67.4 126.5 67.5 127.8 L67.45 129.0 69.0 129.0 69.0 135.0 -53.0 135.0 -53.0 134.45 -53.1 133.5 -53.0 132.55 -53.0 131.7 -52.5 129.0 Q-51.6 123.65 -50.15 123.65 -49.4 123.65 -49.0 124.25 L-48.75 124.95 Q-48.6 125.95 -48.1 126.6 -47.45 125.9 -43.85 125.9 -40.55 125.9 -39.75 126.4 L-39.65 126.6 -36.15 126.0 -16.9 126.0 Q-16.65 125.6 -16.05 125.6 L-9.5 126.0 5.9 126.0 21.5 126.2 21.85 125.3 Q22.25 124.5 23.25 124.5 24.3 124.5 24.2 125.5 L24.05 126.2 41.0 126.55 43.1 126.75" fill="#000000" fill-rule="evenodd" stroke="none"/>
  </g>
</svg>
