<?xml version="1.0" encoding="UTF-8" standalone="no"?>
<svg xmlns:ffdec="https://www.free-decompiler.com/flash" xmlns:xlink="http://www.w3.org/1999/xlink" ffdec:objectType="shape" height="239.95px" width="720.0px" xmlns="http://www.w3.org/2000/svg">
  <g transform="matrix(1.0, 0.0, 0.0, 1.0, 0.0, 0.0)">
    <path d="M720.0 0.0 L720.0 12.25 421.5 101.6 417.5 96.6 653.65 0.0 720.0 0.0 M112.45 0.0 L279.5 89.6 278.5 91.6 273.5 95.6 43.9 0.0 112.45 0.0 M204.25 0.0 L229.5 22.6 264.8 50.45 Q289.25 70.85 294.5 81.6 L289.15 83.65 Q286.9 84.25 284.5 82.6 L165.45 0.0 204.25 0.0 M321.55 0.0 L334.5 70.6 333.5 71.6 327.15 71.45 Q325.05 70.95 323.5 68.6 L296.6 0.0 321.55 0.0 M269.35 0.0 L314.5 74.6 302.5 75.6 239.25 0.0 269.35 0.0 M370.4 0.0 L356.5 70.6 344.5 70.6 344.5 0.0 370.4 0.0 M422.9 0.0 L376.5 74.6 366.5 72.6 366.5 71.6 395.45 0.0 422.9 0.0 M581.1 0.0 L496.5 44.6 450.25 69.7 Q412.2 90.0 409.5 88.6 L403.5 84.6 405.5 84.6 529.5 0.0 581.1 0.0 M487.2 0.0 L395.5 80.6 386.5 77.6 453.2 0.0 487.2 0.0 M355.5 179.6 L366.6 239.95 343.7 239.95 344.5 179.6 355.5 179.6 M376.5 176.6 L414.75 239.95 389.3 239.95 365.5 178.6 365.5 177.6 370.5 176.6 376.5 176.6 M393.5 169.6 L472.3 239.95 441.95 239.95 385.5 172.6 393.5 169.6 M404.5 163.6 L409.5 160.6 556.6 239.95 511.4 239.95 403.5 165.6 404.5 163.6 M426.5 107.6 L720.0 46.5 720.0 78.9 428.5 114.6 426.5 108.6 426.5 107.6 M430.5 121.6 L720.0 109.1 720.0 139.85 430.5 128.6 430.5 121.6 M428.5 135.6 L720.0 170.05 720.0 202.05 426.5 141.6 426.5 140.6 428.5 135.6 M421.5 148.6 L720.0 239.6 720.0 239.95 626.05 239.95 417.5 154.6 421.5 148.6 M264.5 107.6 L0.0 50.85 0.0 19.25 267.5 101.6 264.5 107.6 M262.5 141.6 L266.5 146.6 0.0 224.4 0.0 193.15 259.5 141.6 262.5 141.6 M260.5 134.6 L0.0 164.0 0.0 136.0 259.5 127.6 260.5 134.6 M259.5 120.6 L0.0 108.65 0.0 80.0 260.5 113.6 259.5 120.6 M278.5 160.6 L126.25 239.95 57.45 239.95 270.5 154.6 278.5 158.6 278.5 160.6 M291.4 167.4 Q292.95 168.65 292.5 171.6 L213.0 239.95 174.05 239.95 285.5 164.6 Q290.75 166.85 291.4 167.4 M312.5 176.6 L272.3 239.95 244.95 239.95 303.5 172.6 312.5 176.6 M297.65 239.95 L323.5 177.6 333.5 178.6 320.8 239.95 297.65 239.95" fill="#000000" fill-rule="evenodd" stroke="none"/>
  </g>
</svg>
