<?xml version="1.0" encoding="UTF-8" standalone="no"?>
<svg xmlns:ffdec="https://www.free-decompiler.com/flash" xmlns:xlink="http://www.w3.org/1999/xlink" ffdec:objectType="shape" height="7.0px" width="140.0px" xmlns="http://www.w3.org/2000/svg">
  <g transform="matrix(1.0, 0.0, 0.0, 1.0, 0.0, 0.0)">
    <path d="M1.0 7.0 L0.0 7.0 0.0 2.0 1.0 2.0 1.0 1.0 2.0 1.0 2.0 0.0 138.0 0.0 138.0 1.0 139.0 1.0 139.0 2.0 140.0 2.0 140.0 7.0 139.0 7.0 139.0 2.0 138.0 2.0 138.0 1.0 2.0 1.0 2.0 2.0 1.0 2.0 1.0 7.0" fill="#333333" fill-rule="evenodd" stroke="none"/>
    <path d="M139.0 7.0 L1.0 7.0 1.0 2.0 2.0 2.0 2.0 1.0 138.0 1.0 138.0 2.0 139.0 2.0 139.0 7.0" fill="#ffff99" fill-rule="evenodd" stroke="none"/>
  </g>
</svg>
